<svg width="317" height="199" viewBox="0 0 317 199" fill="none" xmlns="http://www.w3.org/2000/svg">
<path d="M45.0638 136.681V152.701H47.1638V140.121L56.8638 152.601H58.8438V136.581H56.7238V149.161L47.0238 136.681H45.0638ZM67.3108 152.981C69.9308 152.981 71.9908 151.561 72.6108 149.581H70.5108C70.0908 150.521 68.8708 151.241 67.3108 151.241C65.2708 151.241 63.8508 149.781 63.6308 147.821H72.9908C73.0308 147.541 73.0308 147.241 73.0308 146.981C73.0308 143.541 70.6508 140.981 67.3108 140.981C63.9708 140.981 61.5708 143.541 61.5708 146.981C61.5708 150.421 63.9708 152.981 67.3108 152.981ZM71.0108 146.141H63.6308C63.8508 144.161 65.2508 142.721 67.3108 142.721C69.3708 142.721 70.7708 144.141 71.0108 146.141ZM80.7073 152.981C82.7873 152.981 84.1873 151.981 84.7673 151.001V152.701H86.8273V141.261H84.7673V142.961C84.1873 141.981 82.7873 140.981 80.7073 140.981C77.4673 140.981 75.0473 143.561 75.0473 146.981C75.0473 150.401 77.4673 152.981 80.7073 152.981ZM80.8873 151.161C78.5873 151.161 77.0673 149.361 77.0673 146.981C77.0673 144.601 78.5873 142.801 80.8873 142.801C83.2073 142.801 84.8073 144.601 84.8073 146.981C84.8073 149.361 83.2073 151.161 80.8873 151.161ZM90.0614 141.261V152.701H92.1214V146.781C92.1214 144.701 93.7614 142.821 96.1014 142.821C96.8014 142.821 97.3614 142.941 97.8014 143.141V141.181C97.4014 141.041 96.9414 140.981 96.2414 140.981C94.0014 140.981 92.6214 142.161 92.1214 143.021V141.261H90.0614ZM101.907 152.701V136.181H99.8466V152.701H101.907ZM113.68 141.261L109.9 150.261L106.22 141.261H103.96L108.86 152.461L106.6 157.561H108.68L115.82 141.261H113.68ZM123.479 136.181V152.701H125.539V146.781C125.539 144.661 126.979 142.781 128.979 142.781C130.839 142.781 131.959 144.041 131.959 146.361V152.701H134.019V146.001C134.019 142.921 132.119 140.981 129.419 140.981C127.319 140.981 126.019 142.161 125.539 143.001V136.181H123.479ZM142.055 152.981C144.135 152.981 145.535 151.981 146.115 151.001V152.701H148.175V141.261H146.115V142.961C145.535 141.981 144.135 140.981 142.055 140.981C138.815 140.981 136.395 143.561 136.395 146.981C136.395 150.401 138.815 152.981 142.055 152.981ZM142.235 151.161C139.935 151.161 138.415 149.361 138.415 146.981C138.415 144.601 139.935 142.801 142.235 142.801C144.555 142.801 146.155 144.601 146.155 146.981C146.155 149.361 144.555 151.161 142.235 151.161ZM153.469 152.701V136.181H151.409V152.701H153.469ZM162.462 141.261H159.922V139.381C159.922 138.441 160.442 137.901 161.282 137.901C161.582 137.901 161.982 137.901 162.262 137.961V136.221C161.902 136.141 161.422 136.101 160.922 136.101C158.962 136.101 157.862 137.421 157.862 139.321V141.261H155.602V143.081H157.862V152.701H159.922V143.081H162.462V141.261ZM175.321 140.981C171.921 140.981 169.461 143.541 169.461 146.981C169.461 150.421 171.921 152.981 175.321 152.981C178.701 152.981 181.161 150.421 181.161 146.981C181.161 143.541 178.701 140.981 175.321 140.981ZM175.321 142.801C177.581 142.801 179.141 144.601 179.141 146.981C179.141 149.361 177.581 151.161 175.321 151.161C173.041 151.161 171.481 149.361 171.481 146.981C171.481 144.601 173.041 142.801 175.321 142.801ZM189.181 141.261H186.641V139.381C186.641 138.441 187.161 137.901 188.001 137.901C188.301 137.901 188.701 137.901 188.981 137.961V136.221C188.621 136.141 188.141 136.101 187.641 136.101C185.681 136.101 184.581 137.421 184.581 139.321V141.261H182.321V143.081H184.581V152.701H186.641V143.081H189.181V141.261ZM202.9 152.981C206.14 152.981 208.56 150.401 208.56 146.981C208.56 143.561 206.14 140.981 202.9 140.981C200.82 140.981 199.42 141.981 198.84 142.961V136.181H196.78V152.701H198.84V151.001C199.42 151.981 200.82 152.981 202.9 152.981ZM202.72 151.161C200.4 151.161 198.8 149.361 198.8 146.981C198.8 144.601 200.4 142.801 202.72 142.801C205.02 142.801 206.54 144.601 206.54 146.981C206.54 149.361 205.02 151.161 202.72 151.161ZM221.474 152.701V141.261H219.414V147.181C219.414 149.301 217.974 151.181 215.974 151.181C214.114 151.181 212.994 149.921 212.994 147.601V141.261H210.934V147.961C210.934 151.041 212.834 152.981 215.534 152.981C217.634 152.981 218.934 151.801 219.414 150.961V152.701H221.474ZM226.77 152.701V136.181H224.71V152.701H226.77ZM231.023 135.981C230.243 135.981 229.663 136.561 229.663 137.341C229.663 138.121 230.243 138.701 231.023 138.701C231.823 138.701 232.403 138.121 232.403 137.341C232.403 136.561 231.823 135.981 231.023 135.981ZM232.063 152.721V141.261H230.003V152.721H232.063ZM235.296 141.261V152.701H237.356V146.521C237.356 144.461 238.616 142.781 240.316 142.781C241.916 142.781 242.936 144.021 242.936 146.161V152.701H244.996V146.541C244.996 144.461 246.236 142.781 247.956 142.781C249.576 142.781 250.576 144.021 250.576 146.081V152.701H252.636V145.741C252.636 142.841 250.876 140.981 248.436 140.981C246.496 140.981 245.056 141.941 244.376 143.381C243.816 141.921 242.516 140.981 240.816 140.981C238.896 140.981 237.876 142.041 237.356 142.881V141.261H235.296ZM256.589 135.981C255.809 135.981 255.229 136.561 255.229 137.341C255.229 138.121 255.809 138.701 256.589 138.701C257.389 138.701 257.969 138.121 257.969 137.341C257.969 136.561 257.389 135.981 256.589 135.981ZM257.629 152.721V141.261H255.569V152.721H257.629ZM265.922 152.981C268.002 152.981 269.402 151.981 269.982 151.001V152.701H272.042V141.261H269.982V142.961C269.402 141.981 268.002 140.981 265.922 140.981C262.682 140.981 260.262 143.561 260.262 146.981C260.262 150.401 262.682 152.981 265.922 152.981ZM266.102 151.161C263.802 151.161 262.282 149.361 262.282 146.981C262.282 144.601 263.802 142.801 266.102 142.801C268.422 142.801 270.022 144.601 270.022 146.981C270.022 149.361 268.422 151.161 266.102 151.161ZM26.8064 172.981C30.0464 172.981 32.4664 170.401 32.4664 166.981C32.4664 163.561 30.0464 160.981 26.8064 160.981C24.7264 160.981 23.3264 161.981 22.7464 162.961V161.261H20.6864V177.561H22.7464V171.001C23.3264 171.981 24.7264 172.981 26.8064 172.981ZM26.6264 171.161C24.3064 171.161 22.7064 169.361 22.7064 166.981C22.7064 164.601 24.3064 162.801 26.6264 162.801C28.9264 162.801 30.4464 164.601 30.4464 166.981C30.4464 169.361 28.9264 171.161 26.6264 171.161ZM40.1605 172.981C42.2405 172.981 43.6405 171.981 44.2205 171.001V172.701H46.2805V161.261H44.2205V162.961C43.6405 161.981 42.2405 160.981 40.1605 160.981C36.9205 160.981 34.5005 163.561 34.5005 166.981C34.5005 170.401 36.9205 172.981 40.1605 172.981ZM40.3405 171.161C38.0405 171.161 36.5205 169.361 36.5205 166.981C36.5205 164.601 38.0405 162.801 40.3405 162.801C42.6605 162.801 44.2605 164.601 44.2605 166.981C44.2605 169.361 42.6605 171.161 40.3405 171.161ZM55.5145 161.261H52.9745V157.781H50.9145V161.261H48.3745V163.081H50.9145V172.701H52.9745V163.081H55.5145V161.261ZM58.6595 155.981C57.8795 155.981 57.2995 156.561 57.2995 157.341C57.2995 158.121 57.8795 158.701 58.6595 158.701C59.4595 158.701 60.0395 158.121 60.0395 157.341C60.0395 156.561 59.4595 155.981 58.6595 155.981ZM59.6995 172.721V161.261H57.6395V172.721H59.6995ZM68.0725 172.981C70.6925 172.981 72.7525 171.561 73.3725 169.581H71.2725C70.8525 170.521 69.6325 171.241 68.0725 171.241C66.0325 171.241 64.6125 169.781 64.3925 167.821H73.7525C73.7925 167.541 73.7925 167.241 73.7925 166.981C73.7925 163.541 71.4125 160.981 68.0725 160.981C64.7325 160.981 62.3325 163.541 62.3325 166.981C62.3325 170.421 64.7325 172.981 68.0725 172.981ZM71.7725 166.141H64.3925C64.6125 164.161 66.0125 162.721 68.0725 162.721C70.1325 162.721 71.5325 164.141 71.7725 166.141ZM76.4091 161.261V172.701H78.4691V166.781C78.4691 164.661 79.9091 162.781 81.9091 162.781C83.7691 162.781 84.8891 164.041 84.8891 166.361V172.701H86.9491V166.001C86.9491 162.921 85.0491 160.981 82.3491 160.981C80.2491 160.981 78.9491 162.161 78.4691 163.001V161.261H76.4091ZM95.6903 161.261H93.1503V157.781H91.0903V161.261H88.5503V163.081H91.0903V172.701H93.1503V163.081H95.6903V161.261ZM102.198 160.981C99.3981 160.981 97.2581 162.281 97.2581 164.301C97.2581 166.301 98.6981 167.301 101.818 167.721C104.558 168.081 105.438 168.621 105.438 169.561C105.438 170.581 104.098 171.301 102.338 171.301C100.298 171.301 99.2581 170.401 99.1381 169.501H97.1181C97.2581 171.501 99.2181 172.981 102.278 172.981C105.118 172.981 107.458 171.661 107.458 169.441C107.458 167.661 106.238 166.541 102.798 166.081C99.9981 165.701 99.2781 165.121 99.2781 164.181C99.2781 163.321 100.478 162.661 102.138 162.661C103.798 162.661 105.098 163.341 105.178 164.301H107.198C107.098 162.361 104.998 160.981 102.198 160.981ZM115.667 156.181V172.701H117.727V166.781C117.727 164.661 119.167 162.781 121.167 162.781C123.027 162.781 124.147 164.041 124.147 166.361V172.701H126.207V166.001C126.207 162.921 124.307 160.981 121.607 160.981C119.507 160.981 118.207 162.161 117.727 163.001V156.181H115.667ZM134.243 172.981C136.323 172.981 137.723 171.981 138.303 171.001V172.701H140.363V161.261H138.303V162.961C137.723 161.981 136.323 160.981 134.243 160.981C131.003 160.981 128.583 163.561 128.583 166.981C128.583 170.401 131.003 172.981 134.243 172.981ZM134.423 171.161C132.123 171.161 130.603 169.361 130.603 166.981C130.603 164.601 132.123 162.801 134.423 162.801C136.743 162.801 138.343 164.601 138.343 166.981C138.343 169.361 136.743 171.161 134.423 171.161ZM152.177 161.261L148.437 170.361L144.697 161.261H142.457L147.277 172.701H149.457L154.297 161.261H152.177ZM160.768 172.981C163.388 172.981 165.448 171.561 166.068 169.581H163.968C163.548 170.521 162.328 171.241 160.768 171.241C158.728 171.241 157.308 169.781 157.088 167.821H166.448C166.488 167.541 166.488 167.241 166.488 166.981C166.488 163.541 164.108 160.981 160.768 160.981C157.428 160.981 155.028 163.541 155.028 166.981C155.028 170.421 157.428 172.981 160.768 172.981ZM164.468 166.141H157.088C157.308 164.161 158.708 162.721 160.768 162.721C162.828 162.721 164.228 164.141 164.468 166.141ZM179.77 172.981C181.85 172.981 183.25 171.981 183.83 171.001V172.701H185.89V161.261H183.83V162.961C183.25 161.981 181.85 160.981 179.77 160.981C176.53 160.981 174.11 163.561 174.11 166.981C174.11 170.401 176.53 172.981 179.77 172.981ZM179.95 171.161C177.65 171.161 176.13 169.361 176.13 166.981C176.13 164.601 177.65 162.801 179.95 162.801C182.27 162.801 183.87 164.601 183.87 166.981C183.87 169.361 182.27 171.161 179.95 171.161ZM205.389 168.821H203.289C202.829 170.201 201.589 171.161 199.969 171.161C197.689 171.161 196.149 169.361 196.149 166.981C196.149 164.601 197.689 162.801 199.969 162.801C201.589 162.801 202.789 163.741 203.249 165.101H205.349C204.789 162.721 202.669 160.981 199.969 160.981C196.589 160.981 194.129 163.541 194.129 166.981C194.129 170.421 196.609 172.981 200.009 172.981C202.669 172.981 204.769 171.301 205.389 168.821ZM213.173 160.981C209.773 160.981 207.313 163.541 207.313 166.981C207.313 170.421 209.773 172.981 213.173 172.981C216.553 172.981 219.013 170.421 219.013 166.981C219.013 163.541 216.553 160.981 213.173 160.981ZM213.173 162.801C215.433 162.801 216.993 164.601 216.993 166.981C216.993 169.361 215.433 171.161 213.173 171.161C210.893 171.161 209.333 169.361 209.333 166.981C209.333 164.601 210.893 162.801 213.173 162.801ZM221.643 161.261V172.701H223.703V166.521C223.703 164.461 224.963 162.781 226.663 162.781C228.263 162.781 229.283 164.021 229.283 166.161V172.701H231.343V166.541C231.343 164.461 232.583 162.781 234.303 162.781C235.923 162.781 236.923 164.021 236.923 166.081V172.701H238.983V165.741C238.983 162.841 237.223 160.981 234.783 160.981C232.843 160.981 231.403 161.941 230.723 163.381C230.163 161.921 228.863 160.981 227.163 160.981C225.243 160.981 224.223 162.041 223.703 162.881V161.261H221.643ZM247.177 160.981C243.777 160.981 241.317 163.541 241.317 166.981C241.317 170.421 243.777 172.981 247.177 172.981C250.557 172.981 253.017 170.421 253.017 166.981C253.017 163.541 250.557 160.981 247.177 160.981ZM247.177 162.801C249.437 162.801 250.997 164.601 250.997 166.981C250.997 169.361 249.437 171.161 247.177 171.161C244.897 171.161 243.337 169.361 243.337 166.981C243.337 164.601 244.897 162.801 247.177 162.801ZM255.647 161.261V172.701H257.707V166.781C257.707 164.701 259.347 162.821 261.687 162.821C262.387 162.821 262.947 162.941 263.387 163.141V161.181C262.987 161.041 262.527 160.981 261.827 160.981C259.587 160.981 258.207 162.161 257.707 163.021V161.261H255.647ZM271.553 172.981C274.793 172.981 277.213 170.401 277.213 166.981C277.213 163.561 274.793 160.981 271.553 160.981C269.473 160.981 268.073 161.981 267.493 162.961V156.181H265.433V172.701H267.493V171.001C268.073 171.981 269.473 172.981 271.553 172.981ZM271.373 171.161C269.053 171.161 267.453 169.361 267.453 166.981C267.453 164.601 269.053 162.801 271.373 162.801C273.673 162.801 275.193 164.601 275.193 166.981C275.193 169.361 273.673 171.161 271.373 171.161ZM280.867 155.981C280.087 155.981 279.507 156.561 279.507 157.341C279.507 158.121 280.087 158.701 280.867 158.701C281.667 158.701 282.247 158.121 282.247 157.341C282.247 156.561 281.667 155.981 280.867 155.981ZM281.907 172.721V161.261H279.847V172.721H281.907ZM290.2 172.981C292.28 172.981 293.68 171.981 294.26 171.001V172.701H296.32V156.181H294.26V162.961C293.68 161.981 292.28 160.981 290.2 160.981C286.96 160.981 284.54 163.561 284.54 166.981C284.54 170.401 286.96 172.981 290.2 172.981ZM290.38 171.161C288.08 171.161 286.56 169.361 286.56 166.981C286.56 164.601 288.08 162.801 290.38 162.801C292.7 162.801 294.3 164.601 294.3 166.981C294.3 169.361 292.7 171.161 290.38 171.161ZM22.5516 181.261V192.701H24.6116V186.521C24.6116 184.461 25.8716 182.781 27.5716 182.781C29.1716 182.781 30.1916 184.021 30.1916 186.161V192.701H32.2516V186.541C32.2516 184.461 33.4916 182.781 35.2116 182.781C36.8316 182.781 37.8316 184.021 37.8316 186.081V192.701H39.8916V185.741C39.8916 182.841 38.1316 180.981 35.6916 180.981C33.7516 180.981 32.3116 181.941 31.6316 183.381C31.0716 181.921 29.7716 180.981 28.0716 180.981C26.1516 180.981 25.1316 182.041 24.6116 182.881V181.261H22.5516ZM48.0851 180.981C44.6851 180.981 42.2251 183.541 42.2251 186.981C42.2251 190.421 44.6851 192.981 48.0851 192.981C51.4651 192.981 53.9251 190.421 53.9251 186.981C53.9251 183.541 51.4651 180.981 48.0851 180.981ZM48.0851 182.801C50.3451 182.801 51.9051 184.601 51.9051 186.981C51.9051 189.361 50.3451 191.161 48.0851 191.161C45.8051 191.161 44.2451 189.361 44.2451 186.981C44.2451 184.601 45.8051 182.801 48.0851 182.801ZM61.8155 180.981C58.4155 180.981 55.9555 183.541 55.9555 186.981C55.9555 190.421 58.4155 192.981 61.8155 192.981C65.1955 192.981 67.6555 190.421 67.6555 186.981C67.6555 183.541 65.1955 180.981 61.8155 180.981ZM61.8155 182.801C64.0755 182.801 65.6355 184.601 65.6355 186.981C65.6355 189.361 64.0755 191.161 61.8155 191.161C59.5355 191.161 57.9755 189.361 57.9755 186.981C57.9755 184.601 59.5355 182.801 61.8155 182.801ZM75.346 192.981C77.426 192.981 78.826 191.981 79.406 191.001V192.701H81.466V176.181H79.406V182.961C78.826 181.981 77.426 180.981 75.346 180.981C72.106 180.981 69.686 183.561 69.686 186.981C69.686 190.401 72.106 192.981 75.346 192.981ZM75.526 191.161C73.226 191.161 71.706 189.361 71.706 186.981C71.706 184.601 73.226 182.801 75.526 182.801C77.846 182.801 79.446 184.601 79.446 186.981C79.446 189.361 77.846 191.161 75.526 191.161ZM95.5655 180.981C92.1655 180.981 89.7055 183.541 89.7055 186.981C89.7055 190.421 92.1655 192.981 95.5655 192.981C98.9455 192.981 101.406 190.421 101.406 186.981C101.406 183.541 98.9455 180.981 95.5655 180.981ZM95.5655 182.801C97.8255 182.801 99.3855 184.601 99.3855 186.981C99.3855 189.361 97.8255 191.161 95.5655 191.161C93.2855 191.161 91.7255 189.361 91.7255 186.981C91.7255 184.601 93.2855 182.801 95.5655 182.801ZM104.036 181.261V192.701H106.096V186.781C106.096 184.701 107.736 182.821 110.076 182.821C110.776 182.821 111.336 182.941 111.776 183.141V181.181C111.376 181.041 110.916 180.981 110.216 180.981C107.976 180.981 106.596 182.161 106.096 183.021V181.261H104.036ZM124.487 192.981C126.567 192.981 127.967 191.981 128.547 191.001V192.701H130.607V181.261H128.547V182.961C127.967 181.981 126.567 180.981 124.487 180.981C121.247 180.981 118.827 183.561 118.827 186.981C118.827 190.401 121.247 192.981 124.487 192.981ZM124.667 191.161C122.367 191.161 120.847 189.361 120.847 186.981C120.847 184.601 122.367 182.801 124.667 182.801C126.987 182.801 128.587 184.601 128.587 186.981C128.587 189.361 126.987 191.161 124.667 191.161ZM133.841 181.261V192.701H135.901V186.781C135.901 184.661 137.341 182.781 139.341 182.781C141.201 182.781 142.321 184.041 142.321 186.361V192.701H144.381V186.001C144.381 182.921 142.481 180.981 139.781 180.981C137.681 180.981 136.381 182.161 135.901 183.001V181.261H133.841ZM150.658 186.901L146.038 192.701H148.418L151.918 188.281L155.418 192.701H157.938L153.258 186.861L157.698 181.261H155.318L151.998 185.481L148.718 181.261H146.198L150.658 186.901ZM160.935 175.981C160.155 175.981 159.575 176.561 159.575 177.341C159.575 178.121 160.155 178.701 160.935 178.701C161.735 178.701 162.315 178.121 162.315 177.341C162.315 176.561 161.735 175.981 160.935 175.981ZM161.975 192.721V181.261H159.915V192.721H161.975ZM170.348 192.981C172.968 192.981 175.028 191.561 175.648 189.581H173.548C173.128 190.521 171.908 191.241 170.348 191.241C168.308 191.241 166.888 189.781 166.668 187.821H176.028C176.068 187.541 176.068 187.241 176.068 186.981C176.068 183.541 173.688 180.981 170.348 180.981C167.008 180.981 164.608 183.541 164.608 186.981C164.608 190.421 167.008 192.981 170.348 192.981ZM174.048 186.141H166.668C166.888 184.161 168.288 182.721 170.348 182.721C172.408 182.721 173.808 184.141 174.048 186.141ZM184.313 181.261H181.773V177.781H179.713V181.261H177.173V183.081H179.713V192.701H181.773V183.081H184.313V181.261ZM195.232 181.261L191.452 190.261L187.772 181.261H185.512L190.412 192.461L188.152 197.561H190.232L197.372 181.261H195.232ZM210.092 192.981C212.172 192.981 213.572 191.981 214.152 191.001V192.701H216.212V176.181H214.152V182.961C213.572 181.981 212.172 180.981 210.092 180.981C206.852 180.981 204.432 183.561 204.432 186.981C204.432 190.401 206.852 192.981 210.092 192.981ZM210.272 191.161C207.972 191.161 206.452 189.361 206.452 186.981C206.452 184.601 207.972 182.801 210.272 182.801C212.592 182.801 214.192 184.601 214.192 186.981C214.192 189.361 212.592 191.161 210.272 191.161ZM220.466 175.981C219.686 175.981 219.106 176.561 219.106 177.341C219.106 178.121 219.686 178.701 220.466 178.701C221.266 178.701 221.846 178.121 221.846 177.341C221.846 176.561 221.266 175.981 220.466 175.981ZM221.506 192.721V181.261H219.446V192.721H221.506ZM229.239 180.981C226.439 180.981 224.299 182.281 224.299 184.301C224.299 186.301 225.739 187.301 228.859 187.721C231.599 188.081 232.479 188.621 232.479 189.561C232.479 190.581 231.139 191.301 229.379 191.301C227.339 191.301 226.299 190.401 226.179 189.501H224.159C224.299 191.501 226.259 192.981 229.319 192.981C232.159 192.981 234.499 191.661 234.499 189.441C234.499 187.661 233.279 186.541 229.839 186.081C227.039 185.701 226.319 185.121 226.319 184.181C226.319 183.321 227.519 182.661 229.179 182.661C230.839 182.661 232.139 183.341 232.219 184.301H234.239C234.139 182.361 232.039 180.981 229.239 180.981ZM242.362 180.981C238.962 180.981 236.502 183.541 236.502 186.981C236.502 190.421 238.962 192.981 242.362 192.981C245.742 192.981 248.202 190.421 248.202 186.981C248.202 183.541 245.742 180.981 242.362 180.981ZM242.362 182.801C244.622 182.801 246.182 184.601 246.182 186.981C246.182 189.361 244.622 191.161 242.362 191.161C240.082 191.161 238.522 189.361 238.522 186.981C238.522 184.601 240.082 182.801 242.362 182.801ZM250.833 181.261V192.701H252.893V186.781C252.893 184.701 254.533 182.821 256.873 182.821C257.573 182.821 258.133 182.941 258.573 183.141V181.181C258.173 181.041 257.713 180.981 257.013 180.981C254.773 180.981 253.393 182.161 252.893 183.021V181.261H250.833ZM265.073 192.981C267.153 192.981 268.553 191.981 269.133 191.001V192.701H271.193V176.181H269.133V182.961C268.553 181.981 267.153 180.981 265.073 180.981C261.833 180.981 259.413 183.561 259.413 186.981C259.413 190.401 261.833 192.981 265.073 192.981ZM265.253 191.161C262.953 191.161 261.433 189.361 261.433 186.981C261.433 184.601 262.953 182.801 265.253 182.801C267.573 182.801 269.173 184.601 269.173 186.981C269.173 189.361 267.573 191.161 265.253 191.161ZM279.567 192.981C282.187 192.981 284.247 191.561 284.867 189.581H282.767C282.347 190.521 281.127 191.241 279.567 191.241C277.527 191.241 276.107 189.781 275.887 187.821H285.247C285.287 187.541 285.287 187.241 285.287 186.981C285.287 183.541 282.907 180.981 279.567 180.981C276.227 180.981 273.827 183.541 273.827 186.981C273.827 190.421 276.227 192.981 279.567 192.981ZM283.267 186.141H275.887C276.107 184.161 277.507 182.721 279.567 182.721C281.627 182.721 283.027 184.141 283.267 186.141ZM287.903 181.261V192.701H289.963V186.781C289.963 184.701 291.603 182.821 293.943 182.821C294.643 182.821 295.203 182.941 295.643 183.141V181.181C295.243 181.041 294.783 180.981 294.083 180.981C291.843 180.981 290.463 182.161 289.963 183.021V181.261H287.903Z" fill="#26325B"/>
<path d="M205.03 46.9635C205.114 46.7884 205.178 46.6048 205.222 46.415C206.704 40.0259 203.692 35.7354 201.097 33.7029C200.508 28.9111 195.99 25.8456 192.291 24.3657C191.915 19.8519 190.2 16.1864 187.18 13.4502C182.236 8.973 175.153 8.36891 171.69 8.36891C171.654 8.36891 171.619 8.36891 171.584 8.36891C168.21 2.60384 160.489 2.33746 155.987 3.17332C153.346 2.27138 150.683 1.55403 148.063 1.03699C146.604 0.749624 145.184 1.69771 144.896 3.15864C144.607 4.61852 145.558 6.03645 147.019 6.32486C149.62 6.83876 152.275 7.57185 154.905 8.5042C155.393 8.6783 155.92 8.70661 156.423 8.5881C156.513 8.56713 165.411 6.54511 167.363 12.0354C167.777 13.1985 168.933 13.9305 170.163 13.8152C170.248 13.8068 178.74 13.0611 183.575 17.4596C185.275 19.0076 186.326 21.0044 186.755 23.5183C183.117 23.6924 177.443 24.9698 174.49 30.8157C173.818 32.1444 174.35 33.7648 175.68 34.437C176.07 34.6332 176.485 34.7265 176.894 34.7265C177.879 34.7265 178.828 34.1853 179.302 33.2467C181.789 28.328 187.968 28.822 189.089 28.9562C190.086 29.2834 195.998 31.3904 195.76 35.0023C195.689 36.0721 196.26 37.082 197.214 37.5739C197.223 37.5781 198.18 38.1161 199.01 39.2456C200.1 40.7286 200.458 42.5503 200.078 44.6667L199.897 44.9079C195.712 45.3673 189.418 47.9997 188.558 55.7815C188.396 57.2613 189.463 58.5933 190.943 58.7569C191.044 58.7674 191.143 58.7726 191.242 58.7726C192.599 58.7726 193.766 57.7522 193.918 56.373C194.463 51.4417 198.7 50.4611 200.526 50.2682C212.341 58.931 204.001 79.1334 203.449 80.4286C200.524 86.0185 196.853 88.8785 192.251 89.1396C190.279 87.492 185.115 83.8287 176.09 81.6672C174.641 81.32 173.186 82.2125 172.838 83.6599C172.492 85.1082 173.384 86.5628 174.833 86.9089C182.544 88.7558 186.947 91.7899 188.571 93.0946C188.55 93.8339 188.452 94.5649 188.273 95.2749C186.355 102.891 176.043 106.886 165.284 104.178C163.504 103.729 161.779 103.111 160.158 102.34C159.361 101.961 158.428 101.996 157.661 102.435C156.895 102.872 156.392 103.659 156.314 104.538C156.006 108.027 156.156 111.388 156.758 114.566L149.678 115.743C149.376 114.671 149.073 113.418 148.744 112.055C147.162 105.506 144.877 96.0573 138.158 88.3048C143.751 86.9435 149.132 86.0447 154.204 85.6284C155.689 85.5067 156.793 84.2052 156.671 82.7222C156.549 81.2382 155.246 80.136 153.763 80.2566C147.06 80.8062 139.873 82.1465 132.399 84.2388C125.547 85.1659 120.748 84.7946 120.211 84.7474C108.523 82.9918 105.259 75.9325 106.019 70.4129C106.14 69.5288 105.816 68.6415 105.153 68.0437C104.49 67.4459 103.575 67.2152 102.708 67.427L100.753 67.9053C97.3442 67.7364 88.8239 66.4171 84.9891 61.9535C83.3231 60.0133 82.6852 57.6704 83.0408 54.7905C83.1772 53.6788 82.6128 52.5985 81.6223 52.0773C81.6108 52.071 80.463 51.3799 80.1808 50.1622C79.845 48.7118 80.8187 46.975 81.6947 45.7742C82.2246 45.0474 82.3568 44.1035 82.0473 43.2593C82.0263 43.2026 80.0381 37.469 82.3085 32.7097C83.5717 30.0616 85.9932 28.1088 89.5069 26.9069C90.5246 26.5587 91.2359 25.6578 91.3199 24.586C91.323 24.5514 91.6661 21.1334 94.1568 19.2771C95.8775 17.9955 98.3598 17.6673 101.534 18.3018C102.253 18.4444 102.999 18.2902 103.601 17.8718C104.204 17.4533 104.61 16.8083 104.725 16.0836C104.735 16.0249 105.942 10.4161 116.462 10.2168C118.058 12.3951 121.579 18.1182 118.967 23.2457C118.291 24.5723 118.82 26.1958 120.146 26.8712C120.538 27.0705 120.956 27.1649 121.367 27.1649C122.349 27.1649 123.297 26.6269 123.773 25.6924C124.744 23.7847 125.191 21.8718 125.284 20.0249C126.739 19.4061 129.005 18.7412 130.814 19.2792C131.99 19.6274 132.894 20.4811 133.579 21.8865C134.046 22.845 135.006 23.4019 136.006 23.4019C136.402 23.4019 136.805 23.3138 137.185 23.1282C138.524 22.4769 139.08 20.8629 138.428 19.5246C137.082 16.7643 134.98 14.8922 132.349 14.1109C129.546 13.2792 126.695 13.8099 124.585 14.521C123.881 12.1151 122.774 10.0249 121.8 8.48637C123.07 7.93367 124.784 7.28973 126.895 6.73493C128.336 6.35738 129.197 4.88281 128.818 3.4439C128.44 2.0029 126.964 1.14396 125.525 1.52152C121.263 2.64055 118.343 4.09624 117.049 4.81884C106.128 4.82093 101.906 9.58967 100.317 12.6772C96.5531 12.3217 93.3836 13.1009 90.8698 15.0024C87.9394 17.2184 86.7392 20.4077 86.2565 22.3773C82.1134 24.1119 79.1515 26.802 77.4403 30.3888C74.9569 35.5959 75.9138 41.1984 76.5695 43.7354C74.9202 46.3961 74.3673 48.9625 74.9276 51.3788C75.4018 53.4281 76.5737 54.8534 77.561 55.7364C77.4361 59.47 78.5546 62.737 80.8974 65.4648C86.7056 72.2241 98.2822 73.169 100.568 73.2907C101.157 80.8072 106.881 88.2241 119.492 90.0898C119.532 90.0961 119.573 90.1014 119.614 90.1056C119.726 90.1171 121.123 90.2534 123.482 90.2534C125.625 90.2534 128.564 90.1402 132.057 89.7165C139.496 96.7453 141.803 106.284 143.502 113.32C144.121 115.881 144.655 118.094 145.351 119.799C145.77 120.825 146.765 121.475 147.846 121.475C147.993 121.475 148.141 121.464 148.29 121.439L160.491 119.409C161.25 119.282 161.92 118.838 162.33 118.186C162.74 117.535 162.852 116.739 162.637 116C161.972 113.706 161.611 111.263 161.558 108.702C162.349 108.967 163.154 109.2 163.967 109.405C170.435 111.033 177.02 110.679 182.512 108.409C188.28 106.024 192.183 101.827 193.502 96.5911C193.683 95.8675 193.81 95.1312 193.886 94.3877C198.489 93.7479 204.029 91.0096 208.277 82.8303C208.303 82.782 208.326 82.7338 208.348 82.6845C208.464 82.4233 211.212 76.1874 212.016 68.5828C213.008 59.1848 210.599 51.7752 205.03 46.9635Z" fill="white"/>
<path d="M137.436 39.0432C137.464 39.1995 138.165 42.9142 140.743 46.5597C141.358 47.4292 142.111 48.3374 143.022 49.2079C142.537 51.9766 138.301 53.4921 138.201 53.5267C136.795 54.006 136.042 55.532 136.516 56.9394C136.896 58.0647 137.945 58.7747 139.071 58.7747C139.357 58.7747 139.648 58.7286 139.933 58.6321C142.426 57.7921 146.048 55.6998 147.65 52.3374C149.746 53.2834 152.273 53.8959 155.309 53.8959C155.502 53.8959 155.698 53.8927 155.895 53.8885C157.384 53.8497 158.56 52.6132 158.521 51.125C158.485 49.6599 157.285 48.4979 155.827 48.4979C155.804 48.4979 155.781 48.4989 155.758 48.4989C144.939 48.7705 142.83 38.5356 142.739 38.0658C142.467 36.6069 141.065 35.64 139.604 35.9084C138.139 36.1748 137.168 37.5791 137.436 39.0432Z" fill="white"/>
<path d="M170.31 62.7098C174.991 54.5325 173.143 48.2095 170.768 44.3448C168.26 40.264 164.645 38.114 164.493 38.0249C163.212 37.274 161.572 37.7019 160.815 38.9772C160.057 40.2535 160.48 41.9043 161.753 42.6678C161.78 42.6835 164.486 44.328 166.265 47.3191C168.512 51.0947 168.296 55.3715 165.628 60.0323C164.889 61.3243 165.338 62.9709 166.63 63.7103C167.052 63.9526 167.513 64.0669 167.966 64.0669C168.903 64.0669 169.811 63.5803 170.31 62.7098Z" fill="white"/>
<path d="M198.888 69.0096C200.1 68.1444 200.381 66.4611 199.516 65.2498C198.65 64.0385 196.966 63.7574 195.754 64.6226C193.125 66.4999 190.733 67.2057 188.644 66.7191C185.497 65.9881 183.709 62.7579 183.667 62.6824C182.974 61.3725 181.353 60.867 180.037 61.5529C178.716 62.2419 178.204 63.8696 178.893 65.189C178.999 65.3914 181.336 69.7742 186.001 71.5361C185.166 74.8334 184.634 80.652 189.509 84.7265C190.013 85.1481 190.626 85.3547 191.237 85.3547C192.008 85.3547 192.773 85.0254 193.307 84.3888C194.261 83.2467 194.11 81.5466 192.968 80.5912C189.992 78.1035 190.828 74.0217 191.415 72.1738C193.85 71.8759 196.351 70.8209 198.888 69.0096Z" fill="white"/>
<path d="M119.506 51.6998C119.319 50.2231 117.97 49.1796 116.492 49.3652C115.014 49.5519 113.968 50.9016 114.156 52.3783C114.624 56.0668 111.729 58.7517 110.015 59.9966C105.7 57.8613 100.867 58.6751 100.627 58.7171C99.1655 58.9751 98.1929 60.3657 98.4447 61.8277C98.6965 63.2897 100.09 64.2724 101.553 64.028C101.6 64.0196 106.151 63.2907 108.875 65.6505C110.429 66.9981 111.182 69.252 111.109 72.349C111.075 73.8372 112.254 75.0716 113.743 75.1062C113.764 75.1072 113.785 75.1072 113.807 75.1072C115.266 75.1072 116.466 73.942 116.501 72.4748C116.586 68.8503 115.814 65.8676 114.203 63.5687C116.846 61.3757 120.228 57.3904 119.506 51.6998Z" fill="white"/>
<path d="M94.1493 37.5697C93.8566 38.2703 93.4117 38.8975 92.8504 39.468C91.3879 40.9583 89.5518 41.5121 89.4826 41.533C88.0557 41.9284 87.2132 43.4009 87.5993 44.8325C87.9235 46.0343 89.0125 46.8262 90.2002 46.8262C90.4331 46.8262 90.6692 46.7958 90.9052 46.7318C91.0752 46.6856 94.4619 45.7407 97.0775 42.8335C98.8779 44.1696 100.993 44.8671 103.311 44.8671C103.956 44.8671 104.616 44.8136 105.289 44.7045C108.345 44.2126 110.633 42.7727 110.884 42.6101C112.133 41.8005 112.49 40.1319 111.68 38.8828C110.87 37.6337 109.201 37.2771 107.95 38.0868C107.935 38.0962 106.366 39.0705 104.432 39.3831C102.489 39.6966 100.955 39.2541 99.691 37.9997C100.302 35.6767 100.228 33.0883 99.4613 30.2661C99.072 28.8293 97.5916 27.9808 96.1532 28.371C94.7158 28.7611 93.8671 30.2409 94.2574 31.6777C94.8764 33.9599 94.8596 35.8686 94.1997 37.4523C94.1829 37.4911 94.1661 37.5299 94.1493 37.5697Z" fill="white"/>
<path d="M157.251 14.6416C152.696 11.941 147.462 13.3358 147.242 13.3967C145.806 13.7921 144.963 15.2761 145.358 16.7108C145.753 18.1455 147.24 18.9877 148.674 18.5944C148.705 18.5849 151.937 17.7575 154.499 19.2771C156.023 20.1812 157.076 21.8309 157.629 24.1791C157.921 25.4208 159.028 26.2577 160.252 26.2577C160.456 26.2577 160.663 26.2336 160.871 26.1854C162.321 25.8445 163.22 24.393 162.878 22.9447C161.976 19.1156 160.084 16.3217 157.251 14.6416Z" fill="white"/>
<path d="M147.483 65.4606C145.562 68.76 142.786 70.5272 139.233 70.7128C136.38 70.8607 134.027 69.9409 133.97 69.9168C132.595 69.3547 131.026 70.0091 130.458 71.3809C129.888 72.7569 130.542 74.3332 131.917 74.9016C132.234 75.0327 134.971 76.1203 138.592 76.1203C138.815 76.1203 139.041 76.1161 139.271 76.1066C143.121 75.9609 148.48 74.4653 152.144 68.1716C152.894 66.8859 152.457 65.2351 151.17 64.4863C149.884 63.7375 148.232 64.1737 147.483 65.4606Z" fill="white"/>
<path d="M167.007 81.2687C166.37 80.3195 165.178 79.8644 164.066 80.1643C162.991 80.4527 162.195 81.3956 162.081 82.502C161.967 83.62 162.597 84.7243 163.612 85.2015C164.601 85.6661 165.808 85.4847 166.606 84.7338C167.561 83.8371 167.733 82.3531 167.007 81.2687Z" fill="white"/>
<path d="M134.392 3.71975C134.821 4.75594 135.892 5.43554 137.011 5.38205C138.108 5.32857 139.081 4.59338 139.434 3.5551C139.792 2.50528 139.451 1.31178 138.593 0.607008C137.688 -0.137618 136.362 -0.20474 135.387 0.447595C134.333 1.15342 133.907 2.54408 134.392 3.71975Z" fill="white"/>
<path d="M159.889 102.34C161.51 103.111 163.235 103.729 165.016 104.178L163.698 109.405C162.885 109.2 162.08 108.967 161.289 108.702C161.343 111.263 161.703 113.706 162.369 116C162.584 116.739 162.471 117.535 162.061 118.186C161.651 118.838 160.982 119.282 160.222 119.409L148.021 121.439C147.872 121.464 147.724 121.475 147.577 121.475C146.497 121.475 145.501 120.825 145.082 119.799C144.388 118.099 143.855 115.894 143.238 113.342L143.233 113.32C141.534 106.284 139.227 96.7453 131.788 89.7165C128.296 90.1402 125.356 90.2534 123.213 90.2534C120.854 90.2534 119.457 90.1171 119.345 90.1056C119.304 90.1014 119.263 90.0961 119.223 90.0898C106.612 88.2241 100.888 80.8072 100.3 73.2907C98.0134 73.169 86.4368 72.2241 80.6286 65.4648C78.2858 62.737 77.1673 59.47 77.2922 55.7364C76.3049 54.8534 75.133 53.4281 74.6588 51.3788C74.0985 48.9625 74.6514 46.3961 76.3007 43.7354C75.645 41.1984 74.6882 35.5959 77.1715 30.3888C78.8827 26.802 81.8446 24.1119 85.9877 22.3773C86.4704 20.4077 87.6706 17.2184 90.601 15.0024C93.1148 13.1009 96.2843 12.3217 100.048 12.6772C101.637 9.58968 105.859 4.82094 116.78 4.81884C118.075 4.09624 120.994 2.64055 125.256 1.52152C126.696 1.14396 128.171 2.0029 128.55 3.44391C128.928 4.88281 128.067 6.35738 126.626 6.73493C124.515 7.28973 122.801 7.93367 121.532 8.48637C122.505 10.0249 123.612 12.1151 124.316 14.521C126.426 13.8099 129.278 13.2792 132.08 14.1109C134.711 14.8922 136.813 16.7643 138.159 19.5246C138.812 20.8629 138.255 22.4769 136.917 23.1282C136.536 23.3138 136.133 23.4019 135.737 23.4019C134.738 23.4019 133.778 22.845 133.311 21.8865C132.626 20.4811 131.721 19.6274 130.545 19.2792C128.736 18.7412 126.47 19.4061 125.015 20.0249C124.923 21.8718 124.476 23.7847 123.504 25.6924C123.028 26.6269 122.08 27.1649 121.098 27.1649C120.687 27.1649 120.269 27.0705 119.877 26.8712C118.551 26.1958 118.022 24.5724 118.698 23.2457C121.31 18.1182 117.789 12.3951 116.193 10.2168C105.673 10.4161 104.466 16.0249 104.456 16.0836C104.341 16.8083 103.935 17.4533 103.333 17.8718C102.73 18.2902 101.984 18.4444 101.265 18.3018C98.091 17.6673 95.6087 17.9955 93.888 19.2771C91.3973 21.1334 91.0542 24.5514 91.0511 24.586C90.9671 25.6578 90.2558 26.5587 89.2381 26.9069C85.7244 28.1088 83.3029 30.0616 82.0397 32.7097C79.7693 37.469 81.7575 43.2026 81.7785 43.2593C82.088 44.1035 81.9558 45.0474 81.4259 45.7742C80.5499 46.975 79.5762 48.7118 79.912 50.1622C80.1942 51.3799 81.342 52.071 81.3535 52.0773C82.344 52.5985 82.9084 53.6788 82.772 54.7905C82.4164 57.6704 83.0543 60.0133 84.7203 61.9535C88.5551 66.4171 97.0754 67.7364 100.484 67.9053L102.439 67.427C103.306 67.2152 104.221 67.4459 104.884 68.0437C105.547 68.6415 105.872 69.5288 105.75 70.4129C104.99 75.9325 108.254 82.9918 119.942 84.7474C120.479 84.7946 125.278 85.1659 132.13 84.2388C139.605 82.1465 146.792 80.8062 153.495 80.2566C154.977 80.136 156.28 81.2382 156.402 82.7222C156.525 84.2052 155.42 85.5067 153.935 85.6284C148.864 86.0447 143.482 86.9435 137.889 88.3048C144.608 96.0573 146.893 105.506 148.475 112.055C148.804 113.418 149.107 114.671 149.409 115.743L156.489 114.566C155.887 111.388 155.737 108.027 156.045 104.538C156.123 103.659 156.626 102.872 157.392 102.435C158.159 101.996 159.092 101.961 159.889 102.34Z" fill="#E67571"/>
<path d="M137.167 39.0432C137.196 39.1995 137.897 42.9142 140.474 46.5597C141.089 47.4292 141.843 48.3374 142.753 49.2079C142.269 51.9766 138.032 53.4921 137.932 53.5267C136.526 54.006 135.773 55.532 136.247 56.9394C136.627 58.0647 137.676 58.7747 138.802 58.7747C139.088 58.7747 139.379 58.7286 139.664 58.6321C142.157 57.7921 145.779 55.6998 147.381 52.3374C149.477 53.2834 152.005 53.8959 155.04 53.8959C155.233 53.8959 155.429 53.8927 155.627 53.8885C157.115 53.8497 158.292 52.6132 158.253 51.125C158.216 49.6599 157.017 48.4979 155.558 48.4979C155.535 48.4979 155.512 48.4989 155.489 48.4989C144.67 48.7705 142.561 38.5356 142.47 38.0658C142.198 36.6069 140.797 35.64 139.335 35.9084C137.87 36.1748 136.9 37.5791 137.167 39.0432Z" fill="#E67571"/>
<path d="M119.237 51.6997C119.05 50.223 117.701 49.1795 116.223 49.3651C114.746 49.5518 113.7 50.9016 113.887 52.3783C114.355 56.0668 111.461 58.7516 109.746 59.9965C105.431 57.8612 100.598 58.6751 100.358 58.717C98.8967 58.975 97.9241 60.3657 98.1759 61.8277C98.4277 63.2896 99.821 64.2723 101.285 64.028C101.331 64.0196 105.882 63.2907 108.606 65.6504C110.161 66.9981 110.913 69.2519 110.841 72.3489C110.806 73.8371 111.985 75.0715 113.474 75.1061C113.495 75.1072 113.516 75.1072 113.538 75.1072C114.997 75.1072 116.198 73.942 116.232 72.4748C116.317 68.8502 115.545 65.8675 113.935 63.5686C116.577 61.3756 119.959 57.3903 119.237 51.6997Z" fill="#E67571"/>
<path d="M93.8807 37.5697C93.588 38.2703 93.1432 38.8975 92.5819 39.468C91.1193 40.9583 89.2832 41.5121 89.214 41.533C87.7871 41.9284 86.9446 43.4009 87.3307 44.8325C87.6549 46.0343 88.744 46.8262 89.9316 46.8262C90.1646 46.8262 90.4006 46.7958 90.6367 46.7318C90.8066 46.6856 94.1934 45.7407 96.809 42.8335C98.6094 44.1696 100.725 44.8671 103.042 44.8671C103.687 44.8671 104.347 44.8136 105.021 44.7045C108.076 44.2126 110.364 42.7727 110.615 42.6101C111.865 41.8005 112.221 40.1319 111.411 38.8828C110.601 37.6337 108.932 37.2771 107.682 38.0868C107.667 38.0962 106.097 39.0705 104.164 39.3831C102.221 39.6966 100.687 39.2541 99.4225 37.9997C100.033 35.6767 99.9597 33.0883 99.1927 30.2661C98.8035 28.8293 97.3231 27.9808 95.8847 28.371C94.4473 28.7611 93.5985 30.2409 93.9888 31.6777C94.6078 33.9599 94.591 35.8686 93.9311 37.4523C93.9143 37.4911 93.8975 37.5299 93.8807 37.5697Z" fill="#E67571"/>
<path d="M147.214 65.4606C145.293 68.76 142.517 70.5272 138.965 70.7128C136.111 70.8607 133.759 69.9409 133.701 69.9168C132.327 69.3547 130.757 70.0091 130.189 71.3809C129.62 72.7569 130.273 74.3332 131.649 74.9016C131.966 75.0327 134.702 76.1203 138.324 76.1203C138.546 76.1203 138.773 76.1161 139.003 76.1066C142.852 75.9609 148.211 74.4653 151.876 68.1716C152.625 66.8859 152.189 65.2351 150.901 64.4863C149.615 63.7375 147.964 64.1737 147.214 65.4606Z" fill="#E67571"/>
<path d="M166.739 81.2687C166.102 80.3195 164.91 79.8644 163.798 80.1643C162.722 80.4527 161.926 81.3956 161.813 82.502C161.698 83.62 162.329 84.7243 163.343 85.2015C164.333 85.6661 165.539 85.4847 166.338 84.7338C167.293 83.8371 167.465 82.3531 166.739 81.2687Z" fill="#E67571"/>
<path d="M134.124 3.71975C134.552 4.75594 135.623 5.43554 136.743 5.38205C137.839 5.32857 138.813 4.59338 139.165 3.5551C139.523 2.50528 139.182 1.31178 138.325 0.607008C137.419 -0.137618 136.093 -0.20474 135.119 0.447595C134.064 1.15342 133.638 2.54408 134.124 3.71975Z" fill="#E67571"/>
</svg>
