<svg width="189" height="223" viewBox="0 0 189 223" fill="none" xmlns="http://www.w3.org/2000/svg">
<path d="M66.8632 147.612C39.9577 149.42 3.76387 146.28 9.25355 120.953C15.7186 91.1334 10.3143 38.7032 24.9431 17.5569C37.6541 -0.81633 58.9845 -2.06125 77.1929 1.74526C95.4014 -2.05931 116.732 -0.81439 129.443 17.5589C144.072 38.7051 138.667 91.1353 145.13 120.955C150.62 146.282 114.428 149.422 87.5227 147.614L66.8632 147.612Z" fill="#537980"/>
<path d="M28.2337 46.2677C28.0386 46.268 27.8439 46.2505 27.652 46.2153C27.2129 46.1389 26.7932 45.9767 26.4169 45.7379C26.0405 45.4992 25.715 45.1885 25.4589 44.8238C25.2028 44.4591 25.0211 44.0474 24.9242 43.6124C24.8274 43.1773 24.8173 42.7275 24.8945 42.2886C25.4528 38.9806 26.2019 35.7077 27.1381 32.4863C27.412 31.6441 28.0042 30.9424 28.7883 30.5308C29.5725 30.1193 30.4865 30.0307 31.3351 30.2838C32.1837 30.5369 32.8998 31.1117 33.3304 31.8855C33.7611 32.6593 33.8722 33.5708 33.64 34.4254C32.7808 37.3937 32.0925 40.4088 31.5787 43.4559C31.4417 44.2435 31.031 44.9574 30.419 45.4718C29.8071 45.9862 29.0331 46.2681 28.2337 46.2677Z" fill="#385B60"/>
<path d="M46.5391 167.847H107.847C120.19 167.847 132.027 172.75 140.755 181.478C149.483 190.206 154.386 202.043 154.386 214.386V223H0V214.386C0 202.043 4.90322 190.206 13.631 181.478C22.3588 172.75 34.1962 167.847 46.5391 167.847Z" fill="#B360E6"/>
<path d="M108.917 167.871C109.081 172.139 108.381 176.396 106.861 180.388C105.34 184.379 103.029 188.023 100.067 191.101C97.1055 194.178 93.5529 196.627 89.6224 198.299C85.692 199.971 81.4644 200.833 77.193 200.833C72.9216 200.833 68.694 199.971 64.7636 198.299C60.8331 196.627 57.2805 194.178 54.3185 191.101C51.3565 188.023 49.0461 184.379 47.5254 180.388C46.0048 176.396 45.3053 172.139 45.4688 167.871C45.8179 167.851 46.1863 167.851 46.5354 167.851H107.851C108.2 167.851 108.568 167.851 108.917 167.871Z" fill="#934ACB"/>
<path d="M77.1929 189.203C74.3778 189.203 71.5942 188.611 69.0222 187.467C66.4503 186.323 64.1474 184.651 62.2628 182.559C60.3782 180.468 58.9539 178.004 58.0822 175.328C57.2105 172.651 56.9107 169.821 57.2024 167.021L59.7407 142.664H94.6451L97.1815 167.021C97.4735 169.821 97.174 172.651 96.3025 175.328C95.431 178.004 94.0069 180.468 92.1224 182.559C90.238 184.651 87.9353 186.323 85.3634 187.467C82.7915 188.611 80.0079 189.203 77.1929 189.203Z" fill="#E7C8BD"/>
<path d="M130.263 97.9746C137.224 97.9746 142.868 91.7237 142.868 84.0128C142.868 76.302 137.224 70.0511 130.263 70.0511C123.302 70.0511 117.659 76.302 117.659 84.0128C117.659 91.7237 123.302 97.9746 130.263 97.9746Z" fill="#E7C8BD"/>
<path d="M24.1229 97.9746C31.0841 97.9746 36.7273 91.7237 36.7273 84.0128C36.7273 76.302 31.0841 70.0511 24.1229 70.0511C17.1617 70.0511 11.5186 76.302 11.5186 84.0128C11.5186 91.7237 17.1617 97.9746 24.1229 97.9746Z" fill="#E7C8BD"/>
<path d="M129.057 95.9869C129.057 99.1865 128.902 102.929 128.65 106.962C127.815 120.044 122.029 132.317 112.47 141.286C102.91 150.255 90.2936 155.247 77.1852 155.247C64.0768 155.247 51.4604 150.255 41.9007 141.286C32.341 132.317 26.5556 120.044 25.7207 106.962C25.4686 102.929 25.3135 99.1865 25.3135 95.9869C25.5356 85.4534 26.5076 74.9491 28.2222 64.5536C32.7388 63.2114 37.415 62.4809 42.1257 62.3818C49.0678 62.886 68.1295 63.1768 77.1852 53.6751C86.241 63.1768 105.303 62.886 112.245 62.3818C116.955 62.4809 121.632 63.2114 126.148 64.5536C127.863 74.9491 128.835 85.4534 129.057 95.9869Z" fill="#FFD2C4"/>
<path d="M95.6825 132.105C95.1611 132.105 94.6469 131.984 94.1797 131.752C88.827 129.421 83.0295 128.288 77.1929 128.432C71.3564 128.288 65.5587 129.421 60.2062 131.752C59.3995 132.152 58.4671 132.215 57.6142 131.927C56.7612 131.639 56.0575 131.024 55.6579 130.217C55.2583 129.411 55.1955 128.478 55.4834 127.625C55.7712 126.772 56.3861 126.069 57.1927 125.669C63.484 122.878 70.3119 121.505 77.1929 121.646C84.0734 121.505 90.9006 122.878 97.1912 125.669C97.8783 126.009 98.4302 126.571 98.7572 127.264C99.0842 127.957 99.167 128.74 98.9921 129.486C98.8172 130.232 98.395 130.897 97.794 131.373C97.1931 131.848 96.4489 132.106 95.6825 132.105Z" fill="#537980"/>
<path d="M99.2332 92.4073C102.446 92.4073 105.051 89.8028 105.051 86.5899C105.051 83.3771 102.446 80.7725 99.2332 80.7725C96.0203 80.7725 93.4158 83.3771 93.4158 86.5899C93.4158 89.8028 96.0203 92.4073 99.2332 92.4073Z" fill="#537980"/>
<path d="M55.1528 92.4074C58.3657 92.4074 60.9702 89.8028 60.9702 86.59C60.9702 83.3771 58.3657 80.7726 55.1528 80.7726C51.94 80.7726 49.3354 83.3771 49.3354 86.59C49.3354 89.8028 51.94 92.4074 55.1528 92.4074Z" fill="#537980"/>
<path d="M150.096 77.1929C171.413 77.1929 188.693 59.9127 188.693 38.5965C188.693 17.2802 171.413 0 150.096 0C128.78 0 111.5 17.2802 111.5 38.5965C111.5 59.9127 128.78 77.1929 150.096 77.1929Z" fill="#EDEDF9"/>
<g clip-path="url(#clip0)">
<path d="M173.476 53.6355H126.092C124.049 53.6355 122.394 51.9798 122.394 49.9371V49.209C122.394 47.1665 124.049 45.5107 126.092 45.5107H173.476C175.518 45.5107 177.174 47.1665 177.174 49.209V49.9371C177.174 51.9798 175.518 53.6355 173.476 53.6355Z" fill="#E94444"/>
<path d="M177.174 49.2086V49.9369C177.174 51.9798 175.519 53.636 173.476 53.636H171.312C173.354 53.636 175.01 51.9798 175.01 49.9369V49.2086C175.01 47.1667 173.354 45.5106 171.312 45.5106H173.476C175.519 45.5106 177.174 47.1668 177.174 49.2086Z" fill="#D83131"/>
<path d="M173.476 53.6354H149.784H126.092C126.092 53.6354 124.458 61.5259 133.757 64.6299C135.35 65.1617 137.013 65.4093 138.68 65.4093H149.784H160.888C162.555 65.4093 164.218 65.1617 165.811 64.6299C175.11 61.5259 173.476 53.6354 173.476 53.6354Z" fill="#FE9738"/>
<path d="M165.811 64.6298C164.218 65.162 162.555 65.4099 160.888 65.4099H158.377C160.046 65.4099 161.709 65.162 163.302 64.6298C172.6 61.5257 170.966 53.6361 170.966 53.6361H173.476C173.476 53.636 175.11 61.5257 165.811 64.6298Z" fill="#FE860A"/>
<path d="M173.562 46.9838C173.562 48.8302 171.417 49.8312 169.99 48.6588C169.404 48.1769 168.712 47.795 167.614 47.795C164.64 47.795 164.64 50.1506 161.666 50.1506C158.693 50.1506 158.693 47.795 155.719 47.795C152.745 47.795 152.745 50.1506 149.771 50.1506C146.798 50.1506 146.798 47.795 143.824 47.795C140.85 47.795 140.85 50.1506 137.876 50.1506C134.903 50.1506 134.903 47.795 131.929 47.795C130.832 47.795 130.14 48.1766 129.553 48.6584C128.127 49.8308 125.981 48.83 125.981 46.9834V42.6135H173.562V46.9838H173.562Z" fill="#BBEC6C"/>
<path d="M173.563 42.6137V46.9838C173.563 48.7117 171.684 49.6989 170.275 48.8581C170.897 48.4945 171.345 47.8278 171.345 46.9838V42.6137H173.563Z" fill="#A2E62E"/>
<path d="M126.005 39.1121V42.6461H131.106C132.167 42.6461 133.027 43.5064 133.027 44.5675V54.7455C133.027 56.1022 134.127 57.2021 135.484 57.2021C136.841 57.2021 137.941 56.1022 137.941 54.7455V44.5675C137.941 43.5064 138.801 42.6461 139.862 42.6461H173.562V39.1121H126.005Z" fill="#FEE45A"/>
<path d="M171.345 39.1119H173.563V42.6457H171.345V39.1119Z" fill="#FEDF30"/>
<path d="M173.476 39.354H126.092C124.049 39.354 122.394 37.6983 122.394 35.6557V34.9276C122.394 32.8851 124.049 31.2292 126.092 31.2292H173.476C175.518 31.2292 177.174 32.8851 177.174 34.9276V35.6557C177.174 37.6983 175.518 39.354 173.476 39.354Z" fill="#9E5528"/>
<path d="M177.174 34.9274V35.6557C177.174 37.6986 175.519 39.3537 173.476 39.3537H171.312C173.354 39.3537 175.01 37.6986 175.01 35.6557V34.9274C175.01 32.8855 173.354 31.2294 171.312 31.2294H173.476C175.519 31.2295 177.174 32.8856 177.174 34.9274Z" fill="#904D24"/>
<path d="M149.784 11.1586C131.312 11.4259 125.106 21.4457 123.058 27.2676C122.355 29.2625 123.852 31.3502 125.967 31.3502H149.784H173.6C175.731 31.3502 177.208 29.2415 176.498 27.2329C174.437 21.406 168.219 11.4253 149.784 11.1586Z" fill="#FE9738"/>
<path d="M173.6 31.3504H173.337C174.054 30.5504 174.35 29.3857 173.95 28.2529C171.888 22.425 165.67 12.4451 147.235 12.1784C142.466 12.2467 138.514 12.9663 135.241 14.0957C138.952 12.391 143.704 11.2461 149.784 11.158C168.219 11.4258 174.437 21.4057 176.498 27.2325C177.208 29.2413 175.73 31.3504 173.6 31.3504Z" fill="#FE860A"/>
<path d="M142.159 19.6296C142.031 19.6296 141.901 19.5986 141.78 19.5333C141.391 19.3233 141.246 18.8378 141.456 18.4491L142.173 17.1226C142.383 16.7339 142.869 16.5891 143.257 16.7992C143.646 17.0092 143.791 17.4947 143.581 17.8834L142.864 19.2099C142.719 19.4776 142.444 19.6296 142.159 19.6296Z" fill="#E57917"/>
<path d="M149.774 19.7194C149.332 19.7194 148.974 19.3612 148.974 18.9193V17.4115C148.974 16.9696 149.332 16.6115 149.774 16.6115C150.216 16.6115 150.574 16.9696 150.574 17.4115V18.9193C150.574 19.3612 150.216 19.7194 149.774 19.7194Z" fill="#E57917"/>
<path d="M157.408 19.6177C157.132 19.6177 156.864 19.4748 156.715 19.2189L155.959 17.9144C155.737 17.5322 155.867 17.0427 156.25 16.821C156.632 16.5994 157.121 16.7295 157.343 17.1117L158.099 18.4162C158.321 18.7984 158.191 19.2879 157.809 19.5095C157.682 19.5829 157.545 19.6177 157.408 19.6177Z" fill="#E57917"/>
</g>
<defs>
<clipPath id="clip0">
<rect width="54.7804" height="54.7804" fill="white" transform="translate(122.394 10.8937)"/>
</clipPath>
</defs>
</svg>
