<svg width="414" height="438" viewBox="0 0 414 438" fill="none" xmlns="http://www.w3.org/2000/svg">
<g clip-path="url(#clip0)">
<path d="M475.718 309.571L34.2009 101.748C25.7929 97.7901 15.7548 101.426 11.781 109.868L-117.74 385.034C-121.714 393.476 -118.119 403.529 -109.711 407.487L331.805 615.309C340.213 619.267 350.251 615.631 354.225 607.189L483.746 332.024C487.721 323.581 484.126 313.528 475.718 309.571V309.571Z" fill="#F2F2F6"/>
<path d="M125.55 144.746L34.2009 101.748C25.7929 97.7901 15.7548 101.426 11.781 109.868L-117.74 385.034C-121.714 393.476 -118.119 403.529 -109.711 407.487L-18.3623 450.485L125.55 144.746Z" fill="#E5646E"/>
<path d="M11.7805 109.869L-117.74 385.034C-121.714 393.476 -118.119 403.529 -109.711 407.487L-18.3623 450.485L-7.5691 427.555L-45.6312 409.639C-70.8562 397.765 -81.6406 367.607 -69.7186 342.279L41.8131 105.331L34.2009 101.748C25.7929 97.7901 15.7548 101.426 11.7805 109.869V109.869Z" fill="#DB4655"/>
<path d="M240.457 572.312L331.806 615.31C340.214 619.267 350.252 615.632 354.226 607.189L483.747 332.025C487.72 323.582 484.126 313.529 475.718 309.572L384.369 266.574L240.457 572.312Z" fill="#E5646E"/>
<path d="M-7.56909 427.555L251.251 549.381L240.457 572.311L-18.3623 450.485L-7.56909 427.555Z" fill="#E1E1E6"/>
<path d="M264.882 396.473L249.24 370.436L263.631 339.862L207.163 341.294L247.574 294.955L221.139 291.85L219.416 255.998L190.688 277.517L171.449 259.123L161.49 319.795L126.609 275.365L112.218 305.94L82.1846 310.477L121.08 366.133L102.674 385.48L194.023 428.478L197.204 401.965L264.882 396.473Z" fill="#E5646E"/>
</g>
<defs>
<clipPath id="clip0">
<rect width="537.38" height="539.577" fill="white" transform="translate(54.7959) rotate(25.2065)"/>
</clipPath>
</defs>
</svg>
