<svg width="249" height="227" viewBox="0 0 249 227" fill="none" xmlns="http://www.w3.org/2000/svg">
<path d="M166.702 32.6973C171.203 37.1986 171.203 44.4953 166.702 48.9944L89.3959 126.303C84.8945 130.802 77.6001 130.802 73.0988 126.303L36.298 89.4997C31.7967 85.0006 31.7967 77.704 36.298 73.2049C40.7971 68.7035 48.0938 68.7035 52.5929 73.2049L81.2462 101.858L150.405 32.6973C154.906 28.1982 162.203 28.1982 166.702 32.6973ZM249 79.5C249 161.031 183.019 227 101.5 227C19.9694 227 -46 161.019 -46 79.5C-46 -2.03057 19.9807 -68 101.5 -68C183.031 -68 249 -2.01932 249 79.5ZM225.953 79.5C225.953 10.7082 170.283 -44.9531 101.5 -44.9531C32.7082 -44.9531 -22.9531 10.7172 -22.9531 79.5C-22.9531 148.292 32.7172 203.953 101.5 203.953C170.292 203.953 225.953 148.283 225.953 79.5Z" fill="#8CC63E"/>
</svg>
