<svg width="303" height="323" viewBox="0 0 303 323" fill="none" xmlns="http://www.w3.org/2000/svg">
<g clip-path="url(#clip0)">
<path d="M158.794 125.035V28.0116C158.794 22.2277 163.483 17.539 169.267 17.539H307.5C313.284 17.539 317.973 22.2277 317.973 28.0116V125.035C317.973 130.819 313.284 135.508 307.5 135.508H169.268C163.483 135.508 158.794 130.819 158.794 125.035Z" fill="#46738C"/>
<path d="M83.4378 46.2947C95.9516 46.2947 106.096 36.1503 106.096 23.6365C106.096 11.1226 95.9516 0.978188 83.4378 0.978188C70.924 0.978188 60.7795 11.1226 60.7795 23.6365C60.7795 36.1503 70.924 46.2947 83.4378 46.2947Z" fill="#FFB69E"/>
<path d="M99.1454 277.638C91.8623 277.638 85.9587 271.734 85.9587 264.452V159.049C85.9587 151.766 91.863 145.862 99.1454 145.862C106.428 145.862 112.332 151.766 112.332 159.049V264.452C112.333 271.734 106.428 277.638 99.1454 277.638Z" fill="#343E6B"/>
<path d="M67.3126 277.638C60.0296 277.638 54.126 271.734 54.126 264.452V159.049C54.126 151.766 60.0302 145.862 67.3126 145.862C74.595 145.862 80.4993 151.766 80.4993 159.049V264.452C80.4999 271.734 74.5957 277.638 67.3126 277.638Z" fill="#414B82"/>
<path d="M176.017 89.4715C172.832 84.3418 166.093 82.7653 160.962 85.9496L138.82 99.6975V79.2551C138.749 65.061 127.04 53.5127 112.845 53.5127H112.441C105.452 53.5127 60.9618 53.5127 53.7314 53.5127C39.2407 53.5127 27.3926 65.1202 27.321 79.3872C27.321 79.4054 27.321 79.4242 27.321 79.4425V160.174C27.321 166.243 32.2412 171.163 38.31 171.163C44.3788 171.163 49.299 166.243 49.299 160.174V79.4795C49.3224 77.3898 51.429 75.4913 53.7314 75.4913H54.1268V159.049H112.333C112.333 151.259 112.333 84.1389 112.333 75.3795C112.392 75.3795 112.904 75.3795 112.846 75.3795C115.044 75.3795 117.043 77.168 117.054 79.3664V119.349C117.097 127.91 126.52 133.074 133.753 128.583L172.498 104.527C177.625 101.341 179.201 94.6011 176.017 89.4715Z" fill="#252D5C"/>
<path d="M176.017 89.4715C172.832 84.3418 166.093 82.7653 160.962 85.9496L138.82 99.6975V79.2551C138.749 65.061 127.04 53.5127 112.845 53.5127C109.092 53.5127 86.8355 53.5127 83.2258 53.5127V159.048H112.333C112.333 151.258 112.333 84.1376 112.333 75.3782C112.391 75.3782 112.904 75.3782 112.845 75.3782C115.044 75.3782 117.042 77.1667 117.053 79.3651V119.348C117.096 127.909 126.519 133.072 133.753 128.581L172.497 104.526C177.625 101.341 179.201 94.6011 176.017 89.4715Z" fill="#1B224A"/>
<path d="M176.017 89.4715C172.832 84.3419 166.092 82.7653 160.962 85.9496L172.496 104.526C177.625 101.341 179.201 94.6011 176.017 89.4715Z" fill="#FFB69E"/>
<path d="M157.082 88.3194L168.509 106.962L172.483 104.526L161.056 85.8837L157.082 88.3194Z" fill="white"/>
<path d="M27.3169 154.507V160.175C27.3169 166.243 32.2371 171.164 38.3059 171.164C44.3747 171.164 49.2949 166.243 49.2949 160.175V154.507H27.3169Z" fill="white"/>
<path d="M27.3169 159.892V160.175C27.3169 166.243 32.2371 171.164 38.3059 171.164C44.3747 171.164 49.2949 166.243 49.2949 160.175V159.892H27.3169Z" fill="#FFB69E"/>
<path d="M66.4587 53.5127L83.2258 97.5155L99.9974 53.5127H66.4587Z" fill="white"/>
<path d="M90.5185 68.4925L86.7937 61.718L90.004 55.8795C90.5881 54.8174 89.8186 53.514 88.605 53.514H77.843C76.6307 53.514 75.8593 54.8161 76.444 55.8795L79.6654 61.7376L75.951 68.4938C75.4366 69.4297 75.2694 70.5159 75.4789 71.563L77.7702 83.1946L83.2256 97.5168L88.6863 83.1926L90.9906 71.5643C91.2007 70.5159 91.0329 69.4284 90.5185 68.4925Z" fill="#FF3C3C"/>
<path d="M105.859 87.3226H91.3428V91.7992H105.859V87.3226Z" fill="#252D5C"/>
<path d="M279.091 235.5C291.301 235.5 301.199 225.602 301.199 213.392C301.199 201.182 291.301 191.284 279.091 191.284C266.882 191.284 256.983 201.182 256.983 213.392C256.983 225.602 266.882 235.5 279.091 235.5Z" fill="#80391B"/>
<path d="M307.632 242.549C301.135 242.549 256.86 242.549 250.365 242.549C236.515 242.549 225.067 253.816 224.997 267.666V292.403H246.332V267.772C246.342 265.627 248.22 263.882 250.365 263.882H250.575V292.403H307.077V263.882H307.632C309.777 263.882 311.654 265.627 311.665 267.772V292.403H332.999V267.666C332.93 253.817 321.482 242.549 307.632 242.549Z" fill="#80391B"/>
<path d="M307.632 242.549H290.145C283.336 247.948 274.397 247.738 268.188 242.549H250.366C236.516 242.549 225.067 253.816 224.998 267.666V283.193H246.333V267.773C246.343 265.628 248.221 263.883 250.366 263.883H250.576V292.403H307.078V263.883H307.633C309.778 263.883 311.655 265.628 311.666 267.773V283.193H333.001V267.666C332.93 253.817 321.482 242.549 307.632 242.549Z" fill="#55C7A6"/>
<path d="M166.602 235.5C178.812 235.5 188.71 225.602 188.71 213.392C188.71 201.182 178.812 191.284 166.602 191.284C154.392 191.284 144.494 201.182 144.494 213.392C144.494 225.602 154.392 235.5 166.602 235.5Z" fill="#FFB69E"/>
<path d="M195.142 242.549C188.645 242.549 144.371 242.549 137.875 242.549C124.026 242.549 112.577 253.816 112.508 267.666V292.403H133.842V267.772C133.853 265.627 135.73 263.882 137.875 263.882H138.085V292.403H194.587V263.882H195.143C197.288 263.882 199.165 265.627 199.176 267.772V292.403H220.511V267.666C220.441 253.817 208.992 242.549 195.142 242.549Z" fill="#FFB69E"/>
<path d="M195.142 242.549H176.784C169.974 247.948 161.035 247.738 154.826 242.549H137.876C124.027 242.549 112.578 253.816 112.508 267.666V283.193H133.843V267.773C133.853 265.628 135.731 263.883 137.876 263.883H138.086V292.403H194.588V263.883H195.144C197.289 263.883 199.166 265.628 199.177 267.773V283.193H220.511V267.666C220.441 253.817 208.992 242.549 195.142 242.549Z" fill="#252D5C"/>
<path d="M54.0878 235.148C66.2977 235.148 76.1958 225.25 76.1958 213.04C76.1958 200.83 66.2977 190.932 54.0878 190.932C41.8778 190.932 31.9797 200.83 31.9797 213.04C31.9797 225.25 41.8778 235.148 54.0878 235.148Z" fill="#FFB69E"/>
<path d="M82.6346 242.197C76.1378 242.197 31.8632 242.197 25.3678 242.197C11.5184 242.197 0.0695917 253.464 0 267.313V292.051H21.3347V267.421C21.3451 265.276 23.2228 263.531 25.3678 263.531H25.5779V292.051H82.0791V263.53H82.6346C84.7796 263.53 86.6566 265.275 86.6676 267.42V292.051H108.002V267.313C107.933 253.464 96.484 242.197 82.6346 242.197Z" fill="#FFB69E"/>
<path d="M82.6346 242.197H64.2754C57.4658 247.595 48.5269 247.385 42.3176 242.197H25.3678C11.5184 242.197 0.0695917 253.464 0 267.313V282.84H21.3347V267.421C21.3451 265.276 23.2228 263.531 25.3678 263.531H25.5779V292.051H82.0791V263.53H82.6346C84.7796 263.53 86.6566 265.275 86.6676 267.42V282.839H108.002V267.313C107.933 253.464 96.484 242.197 82.6346 242.197Z" fill="#78BEFF"/>
<path d="M229.109 275.121C241.319 275.121 251.217 265.222 251.217 253.013C251.217 240.803 241.319 230.904 229.109 230.904C216.899 230.904 207.001 240.803 207.001 253.013C207.001 265.222 216.899 275.121 229.109 275.121Z" fill="#FFB69E"/>
<path d="M257.654 282.167C251.157 282.167 206.882 282.167 200.387 282.167C186.537 282.167 175.089 293.434 175.019 307.284V332.021H196.354V307.39C196.364 305.245 198.242 303.5 200.387 303.5H200.597V332.021H257.099V303.5H257.654C259.799 303.5 261.676 305.245 261.687 307.39V332.021H283.022V307.284C282.951 293.434 271.503 282.167 257.654 282.167Z" fill="#FFB69E"/>
<path d="M257.654 282.167H240.167C233.358 287.566 224.419 287.356 218.21 282.167H200.388C186.538 282.167 175.089 293.434 175.02 307.284V322.81H196.355V307.391C196.365 305.246 198.243 303.501 200.388 303.501H200.598V332.021H257.099V303.501H257.654C259.799 303.501 261.676 305.246 261.687 307.391V322.81H283.022V307.284C282.951 293.434 271.503 282.167 257.654 282.167Z" fill="#78BEFF"/>
<path d="M116.62 275.121C128.83 275.121 138.728 265.222 138.728 253.013C138.728 240.803 128.83 230.904 116.62 230.904C104.41 230.904 94.512 240.803 94.512 253.013C94.512 265.222 104.41 275.121 116.62 275.121Z" fill="#BA6746"/>
<path d="M145.164 282.167C138.668 282.167 94.393 282.167 87.8976 282.167C74.0482 282.167 62.5994 293.434 62.5298 307.284V332.021H83.8645V307.39C83.8749 305.245 85.7526 303.5 87.8976 303.5H88.1076V332.021H144.61V303.5H145.165C147.31 303.5 149.187 305.245 149.198 307.39V332.021H170.532V307.284C170.462 293.434 159.014 282.167 145.164 282.167Z" fill="#BA6746"/>
<path d="M145.164 282.167H126.806C119.996 287.566 111.057 287.356 104.848 282.167H87.8976C74.0482 282.167 62.5994 293.434 62.5298 307.284V322.81H83.8645V307.391C83.8749 305.246 85.7526 303.501 87.8976 303.501H88.1076V332.021H144.61V303.501H145.165C147.31 303.501 149.187 305.246 149.198 307.391V322.81H170.533V307.284C170.462 293.434 159.014 282.167 145.164 282.167Z" fill="#FF3C3C"/>
<path d="M220.256 37.224V51.642H222.146V41.004L226.79 49.212H228.158L232.802 41.004V51.642H234.692V37.224H233.036L227.474 47.016L221.912 37.224H220.256ZM239.653 37.224H237.763V51.642H239.653V37.224ZM242.756 37.224V51.642H244.646V40.32L253.376 51.552H255.158V37.134H253.25V48.456L244.52 37.224H242.756ZM205.579 65.034H203.689C203.743 67.824 205.867 69.966 209.161 69.966C212.455 69.966 214.687 67.842 214.687 64.584V55.224H212.779V64.584C212.779 66.78 211.429 68.238 209.161 68.238C206.893 68.238 205.633 66.762 205.579 65.034ZM217.35 55.224V63.432C217.35 67.392 219.816 69.984 223.65 69.984C227.466 69.984 229.932 67.392 229.932 63.432V55.224H228.042V63.432C228.042 66.33 226.386 68.256 223.65 68.256C220.914 68.256 219.24 66.33 219.24 63.432V55.224H217.35ZM243.084 55.224V61.398H234.714V55.224H232.824V69.642H234.714V63.126H243.084V69.642H244.974V55.224H243.084ZM248.064 55.224V69.642H258.468V67.968H249.954V63.108H257.676V61.434H249.954V56.898H258.306V55.224H248.064ZM260.896 55.224V69.642H271.3V67.968H262.786V63.108H270.508V61.434H262.786V56.898H271.138V55.224H260.896ZM214.256 87.966C218.468 87.966 221.708 84.978 221.708 80.73V80.082H213.95V81.72H219.692C219.476 84.33 217.28 86.274 214.328 86.274C210.962 86.274 208.586 83.826 208.586 80.424C208.586 77.04 210.962 74.61 214.292 74.61C216.758 74.61 218.792 75.96 219.386 77.778H221.438C220.682 75.024 217.928 72.882 214.256 72.882C209.846 72.882 206.696 76.068 206.696 80.424C206.696 84.78 209.846 87.966 214.256 87.966ZM226.004 73.224H224.114V87.642H233.924V85.932H226.004V73.224ZM237.939 73.224H236.049V87.642H237.939V73.224ZM251.662 87.642H253.732L247.81 73.224H245.812L239.872 87.642H241.852L243.292 84.078H250.222L251.662 87.642ZM243.958 82.404L246.766 75.438L249.556 82.404H243.958ZM255.649 73.224V87.642H257.539V76.32L266.269 87.552H268.051V73.134H266.143V84.456L257.413 73.224H255.649ZM213.454 90.882C210.268 90.882 207.91 92.34 207.91 94.734C207.91 97.128 209.566 98.298 212.824 98.982C215.956 99.648 217.27 100.296 217.27 101.898C217.27 103.338 215.74 104.328 213.58 104.328C211.168 104.328 209.602 103.086 209.404 101.34H207.46C207.658 104.13 210.088 105.966 213.454 105.966C216.658 105.966 219.196 104.382 219.196 101.79C219.196 99.648 217.774 98.28 214.228 97.524C211.15 96.876 209.818 96.228 209.818 94.734C209.818 93.438 211.096 92.502 213.364 92.502C215.614 92.502 217 93.672 217.198 95.202H219.142C218.962 92.682 216.622 90.882 213.454 90.882ZM228.575 105.966C232.949 105.966 236.171 102.78 236.171 98.424C236.171 94.068 232.931 90.882 228.557 90.882C224.183 90.882 220.961 94.068 220.961 98.424C220.961 102.78 224.201 105.966 228.575 105.966ZM228.575 104.238C225.281 104.238 222.851 101.808 222.851 98.424C222.851 95.022 225.263 92.61 228.557 92.61C231.851 92.61 234.281 95.022 234.281 98.424C234.281 101.808 231.851 104.238 228.575 104.238ZM238.66 91.224V105.642H240.55V99.504H247.948V97.812L240.55 97.83V92.916H248.74V91.224H238.66ZM252.644 91.224H250.754V105.642H252.644V91.224ZM266.366 105.642H268.436L262.514 91.224H260.516L254.576 105.642H256.556L257.996 102.078H264.926L266.366 105.642ZM258.662 100.404L261.47 93.438L264.26 100.404H258.662Z" fill="#33454F"/>
<path d="M166.884 100.429C165.345 100.429 163.822 99.7502 162.796 98.4481C161.017 96.1919 161.404 92.9211 163.66 91.1423L206.3 57.5211C208.556 55.7423 211.827 56.1293 213.605 58.3855C215.383 60.6417 214.997 63.9125 212.741 65.6913L170.101 99.3125C169.146 100.064 168.011 100.429 166.884 100.429Z" fill="#FF8C46"/>
</g>
<defs>
<clipPath id="clip0">
<rect width="333" height="333" fill="white"/>
</clipPath>
</defs>
</svg>
