<svg width="33" height="37" viewBox="0 0 33 37" fill="none" xmlns="http://www.w3.org/2000/svg">
<path d="M27.9209 15.7393C27.9225 15.0208 27.6956 14.3162 27.2659 13.7057C26.8363 13.0953 26.2211 12.6034 25.4903 12.2861C24.7595 11.9688 23.9424 11.8387 23.132 11.9107C22.3216 11.9827 21.5503 12.2538 20.9058 12.6932C20.2614 13.1327 19.7697 13.7228 19.4865 14.3966C19.2034 15.0704 19.1402 15.8007 19.3041 16.5045C19.4681 17.2084 19.8526 17.8576 20.414 18.3782C20.9754 18.8989 21.6911 19.2701 22.4797 19.4498V20.5395C22.4797 21.8161 21.9049 23.0403 20.8817 23.943C19.8586 24.8456 18.4708 25.3527 17.0238 25.3527C15.5769 25.3527 14.1891 24.8456 13.166 23.943C12.1428 23.0403 11.568 21.8161 11.568 20.5395C11.6227 19.3936 11.9402 18.2693 12.5013 17.2346C13.0625 16.2 13.8555 15.2764 14.8327 14.5198H14.6856C15.7256 13.9213 16.5832 13.1068 17.1831 12.1477C17.7831 11.1886 18.1071 10.1143 18.1268 9.01904V5.15293C18.1268 4.38907 17.7828 3.6565 17.1706 3.11637C16.5583 2.57625 15.7279 2.2728 14.8621 2.2728H13.215C12.9264 2.2728 12.6496 2.37395 12.4455 2.55399C12.2414 2.73404 12.1268 2.97823 12.1268 3.23285C12.1268 3.48746 12.2414 3.73166 12.4455 3.9117C12.6496 4.09174 12.9264 4.19289 13.215 4.19289H14.8327C15.1213 4.19289 15.3981 4.29403 15.6022 4.47408C15.8063 4.65412 15.9209 4.89831 15.9209 5.15293V9.01904C15.9209 10.2877 15.3517 11.5047 14.3376 12.4042C13.3236 13.3036 11.9471 13.8124 10.5091 13.8193V14.5198V13.8193C9.7946 13.8227 9.08629 13.7019 8.42465 13.4638C7.76302 13.2257 7.16102 12.875 6.65302 12.4317C6.14503 11.9883 5.741 11.4611 5.46399 10.88C5.18698 10.2989 5.04242 9.67536 5.03857 9.04499V5.15293C5.03857 4.89831 5.15322 4.65412 5.3573 4.47408C5.56139 4.29403 5.83818 4.19289 6.1268 4.19289H7.65621C7.94483 4.19289 8.22163 4.09174 8.42571 3.9117C8.62979 3.73166 8.74445 3.48746 8.74445 3.23285C8.74445 2.97823 8.62979 2.73404 8.42571 2.55399C8.22163 2.37395 7.94483 2.2728 7.65621 2.2728H6.1268C5.27118 2.28641 4.45583 2.59584 3.85624 3.1345C3.25666 3.67316 2.92079 4.39798 2.92092 5.15293V9.01904C2.91775 10.0981 3.21028 11.1618 3.7736 12.1196C4.33693 13.0774 5.15434 13.9008 6.15621 14.5198C7.12797 15.2787 7.91557 16.2033 8.47159 17.2378C9.0276 18.2724 9.34052 19.3955 9.3915 20.5395C9.3915 21.4238 9.58892 22.2993 9.97248 23.1162C10.356 23.9332 10.9182 24.6754 11.627 25.3007C12.3357 25.9259 13.1771 26.4219 14.1031 26.7603C15.0291 27.0986 16.0216 27.2728 17.0238 27.2728C18.0261 27.2728 19.0186 27.0986 19.9446 26.7603C20.8706 26.4219 21.712 25.9259 22.4207 25.3007C23.1295 24.6754 23.6917 23.9332 24.0752 23.1162C24.4588 22.2993 24.6562 21.4238 24.6562 20.5395V19.4498C25.5891 19.2373 26.4157 18.7577 27.0066 18.0862C27.5974 17.4148 27.9189 16.5893 27.9209 15.7393ZM23.5091 17.6594C23.0787 17.6594 22.6579 17.5468 22.3 17.3358C21.942 17.1248 21.6631 16.825 21.4983 16.4741C21.3336 16.1233 21.2905 15.7372 21.3745 15.3647C21.4585 14.9923 21.6658 14.6502 21.9701 14.3816C22.2745 14.1131 22.6623 13.9302 23.0845 13.8561C23.5067 13.7821 23.9443 13.8201 24.342 13.9654C24.7397 14.1107 25.0796 14.3568 25.3188 14.6726C25.558 14.9883 25.6856 15.3596 25.6856 15.7393C25.6856 15.9915 25.6293 16.2412 25.5199 16.4741C25.4105 16.7071 25.2502 16.9187 25.0481 17.097C24.846 17.2753 24.6061 17.4168 24.342 17.5133C24.078 17.6098 23.795 17.6594 23.5091 17.6594Z" fill="#26325B"/>
</svg>
