<svg width="184" height="184" viewBox="0 0 184 184" fill="none" xmlns="http://www.w3.org/2000/svg">
<path d="M104.464 133.047H97.6804C97.666 133.046 97.6516 133.044 97.6365 133.044L97.6344 133.047H53.0115C41.2225 133.047 31.666 142.604 31.666 154.393V165.1V168.14V173.771H125.809V168.14V165.1V154.393C125.809 142.604 116.253 133.047 104.464 133.047Z" fill="#6BDDDD"/>
<path d="M120.856 72.2631C120.767 72.2631 120.68 72.2746 120.591 72.2761V68.3574C120.591 45.4502 101.853 26.8805 78.7369 26.8805C55.6219 26.8805 36.8827 45.4502 36.8827 68.3574V72.2761C36.7936 72.2739 36.7073 72.2631 36.6182 72.2631C29.5658 72.2631 23.8489 77.9283 23.8489 84.9174C23.8489 91.9059 29.5658 97.5718 36.6182 97.5718C37.0811 97.5718 37.5375 97.5444 37.9881 97.497C42.3071 115.846 58.9052 129.519 78.7362 129.519C98.568 129.519 115.165 115.847 119.484 97.497C119.935 97.5444 120.391 97.5718 120.854 97.5718C127.907 97.5718 133.624 91.9066 133.624 84.9174C133.625 77.929 127.908 72.2631 120.856 72.2631Z" fill="#F9CFCF"/>
<path d="M78.7377 130.956C58.9239 130.956 41.8867 117.879 36.8856 99.0056C28.9297 99.171 22.4128 92.7748 22.4128 84.9167C22.4128 77.538 28.16 71.466 35.4467 70.8731V68.3574C35.4467 44.694 54.8673 25.443 78.7377 25.443C102.608 25.443 122.029 44.694 122.029 68.3574V70.8731C129.316 71.466 135.063 77.538 135.063 84.9167C135.063 92.6871 128.689 99.0078 120.856 99.0078C120.767 99.0078 120.678 99.0071 120.59 99.0049C115.589 117.879 98.5508 130.956 78.7377 130.956ZM37.9903 96.058C38.6501 96.058 39.2345 96.5116 39.3883 97.1664C43.672 115.368 59.8532 128.081 78.7377 128.081C97.6221 128.081 113.803 115.368 118.086 97.1664C118.252 96.462 118.914 95.9898 119.637 96.0659C120.064 96.1112 120.462 96.1335 120.856 96.1335C127.104 96.1335 132.188 91.1016 132.188 84.9174C132.188 78.7347 127.109 73.7049 120.864 73.7013C120.75 73.7092 120.683 73.7135 120.614 73.715C120.222 73.71 119.857 73.5727 119.582 73.3024C119.308 73.0322 119.153 72.6627 119.153 72.2775V68.3589C119.153 46.281 101.022 28.3195 78.737 28.3195C56.4514 28.3195 38.3209 46.281 38.3209 68.3589V72.2775C38.3209 72.6627 38.1664 73.0322 37.8918 73.3024C37.6173 73.5727 37.2428 73.7092 36.8604 73.715C36.7914 73.7135 36.7239 73.7092 36.6556 73.7042C36.6542 73.7042 36.6513 73.7042 36.6498 73.7042C30.3665 73.7042 25.2864 78.7347 25.2864 84.9181C25.2864 91.1023 30.3694 96.1342 36.6182 96.1342C37.0121 96.1342 37.411 96.1127 37.8372 96.0667C37.889 96.0609 37.94 96.058 37.9903 96.058Z" fill="#3762CC"/>
<path d="M78.7376 129.519C71.8987 129.519 65.4443 127.892 59.7454 125.009V132.257C59.7454 142.743 68.246 151.244 78.7319 151.244C89.2177 151.244 97.7183 142.743 97.7183 132.257V125.014C92.0223 127.894 85.5722 129.519 78.7376 129.519Z" fill="#F9CFCF"/>
<path d="M125.809 175.209H31.666C30.8725 175.209 30.2285 174.565 30.2285 173.771V154.393C30.2285 141.83 40.4484 131.61 53.0107 131.61H58.3079V125.009C58.3079 124.51 58.5674 124.045 58.9929 123.784C59.4184 123.523 59.9488 123.499 60.3945 123.726C66.1078 126.616 72.2797 128.082 78.7377 128.082C85.1914 128.082 91.3597 126.619 97.0709 123.731C97.5158 123.506 98.0462 123.528 98.4724 123.79C98.8979 124.051 99.1567 124.516 99.1567 125.014V131.61H104.464C117.027 131.61 127.247 141.831 127.247 154.393V173.771C127.247 174.565 126.604 175.209 125.809 175.209ZM33.1035 172.334H124.372V154.393C124.372 143.416 115.441 134.485 104.464 134.485H97.6991C97.3073 134.485 96.9329 134.325 96.6612 134.043C96.3902 133.759 96.2465 133.378 96.263 132.986C96.2738 132.745 96.2817 132.502 96.2817 132.256V127.284C90.7581 129.722 84.8679 130.956 78.7377 130.956C72.6039 130.956 66.7094 129.72 61.1837 127.279V132.256C61.1837 132.502 61.1923 132.745 61.2023 132.988C61.2189 133.38 61.0744 133.76 60.8034 134.043C60.5325 134.326 60.158 134.485 59.7663 134.485H53.0115C42.0347 134.485 33.1042 143.416 33.1042 154.393V172.334H33.1035Z" fill="#3762CC"/>
<path d="M67.0434 65.5364H25.2524V51.0255C25.2524 28.4941 43.518 10.2285 66.0494 10.2285H77.7844C83.7163 10.2285 88.5254 15.0377 88.5254 20.9695V44.0543C88.5254 55.9188 78.9078 65.5364 67.0434 65.5364Z" fill="#4671C6"/>
<path d="M131.557 64.0996H107.237C96.9027 64.0996 88.5256 55.7225 88.5256 45.3883V20.0452C88.5256 14.6237 92.9208 10.2292 98.3416 10.2292C116.686 10.2292 131.557 25.1002 131.557 43.4448V64.0996Z" fill="#4671C6"/>
<path d="M29.6521 65.5363V74.3209C31.6567 73.0236 34.0465 72.2631 36.6189 72.2631C36.7081 72.2631 36.7943 72.2746 36.8834 72.2761V68.3574C36.8834 67.4087 36.9215 66.4686 36.9848 65.5356H29.6521V65.5363Z" fill="#4671C6"/>
<path d="M120.366 64.0995C120.511 65.5004 120.592 66.9192 120.592 68.3581V72.2768C120.681 72.2753 120.767 72.2638 120.856 72.2638C123.424 72.2638 125.811 73.0221 127.813 74.3151V64.0995H120.366Z" fill="#4671C6"/>
<path d="M52.2948 92.3256C51.7859 92.3256 51.2936 92.0553 51.032 91.5781C50.651 90.8809 50.9069 90.0076 51.6034 89.6267L61.7651 84.0693C61.7845 84.0585 61.8017 84.0499 61.801 84.0075L51.6213 78.5931C50.9191 78.2223 50.6503 77.3526 51.0212 76.6511C51.3921 75.9496 52.2603 75.6808 52.9632 76.0509L63.1055 81.4042C64.0658 81.9109 64.6674 82.8999 64.676 83.9859C64.6839 85.072 64.0974 86.0703 63.1443 86.5921L52.9819 92.1495C52.7641 92.2688 52.5277 92.3256 52.2948 92.3256Z" fill="#3762CC"/>
<path d="M105.047 92.3256C104.815 92.3256 104.578 92.2688 104.359 92.1495L94.1965 86.5921C93.2435 86.0703 92.657 85.072 92.6649 83.9859C92.6735 82.8999 93.2751 81.9109 94.2353 81.4042L104.378 76.0509C105.081 75.6801 105.95 75.9496 106.32 76.6511C106.691 77.3533 106.422 78.223 105.72 78.5932L95.5772 83.9464C95.5392 84.0499 95.5571 84.0585 95.5765 84.0693L105.739 89.6267C106.435 90.0076 106.691 90.8809 106.31 91.5781C106.049 92.0553 105.556 92.3256 105.047 92.3256Z" fill="#3762CC"/>
<path d="M89.5123 110.739H67.962C66.7538 110.739 65.7734 109.76 65.7734 108.551C65.7734 103.048 70.2347 98.5866 75.7375 98.5866H81.7369C87.2396 98.5866 91.7009 103.048 91.7009 108.551C91.7009 109.76 90.7212 110.739 89.5123 110.739Z" fill="#F9A7A7"/>
<path d="M67.0434 66.9738H25.2524C24.4589 66.9738 23.8149 66.3298 23.8149 65.5363V51.0255C23.8149 27.738 42.7612 8.79103 66.0494 8.79103H77.7851C84.5004 8.79103 89.9629 14.2543 89.9629 20.9688V44.0536C89.9629 56.6921 79.6812 66.9738 67.0434 66.9738ZM26.6899 64.0988H67.0441C78.0964 64.0988 87.0879 55.1066 87.0879 44.0543V20.9695C87.0879 15.8398 82.9149 11.6667 77.7851 11.6667H66.0494C44.3467 11.6667 26.6899 29.3228 26.6899 51.0262V64.0988Z" fill="#3762CC"/>
<path d="M131.557 65.5371H107.237C96.1262 65.5371 87.0872 56.4988 87.0872 45.3884V20.0452C87.0872 13.8395 92.1357 8.79175 98.3413 8.79175C117.449 8.79175 132.994 24.3369 132.994 43.4449V64.0996C132.994 64.8931 132.351 65.5371 131.557 65.5371ZM98.3413 11.666C93.7212 11.666 89.9622 15.4244 89.9622 20.0445V45.3876C89.9622 54.9125 97.7117 62.6614 107.237 62.6614H130.119V43.4441C130.119 25.9217 115.864 11.666 98.3413 11.666Z" fill="#3762CC"/>
<path d="M29.6519 75.7584C29.4161 75.7584 29.1796 75.7002 28.9647 75.5837C28.5019 75.3322 28.2144 74.8477 28.2144 74.3209V65.5363C28.2144 64.7428 28.8584 64.0988 29.6519 64.0988H36.9853C37.3835 64.0988 37.7637 64.2634 38.0354 64.5553C38.307 64.8456 38.4465 65.2366 38.4192 65.6341C38.353 66.6037 38.3207 67.4949 38.3207 68.3582V72.2768C38.3207 72.662 38.1662 73.0315 37.8916 73.3017C37.617 73.572 37.2426 73.7085 36.8602 73.7143C36.7912 73.7128 36.7236 73.7085 36.6554 73.7035C36.6503 73.7035 36.6446 73.7035 36.6395 73.7035C34.4085 73.7035 32.2753 74.3353 30.4317 75.5277C30.1959 75.6815 29.9243 75.7584 29.6519 75.7584ZM31.0894 66.9738V71.9404C32.4737 71.3575 33.9421 70.9967 35.4464 70.8738V68.3582C35.4464 67.9046 35.4543 67.4453 35.4709 66.9738H31.0894Z" fill="#3762CC"/>
<path d="M127.812 75.7527C127.541 75.7527 127.269 75.6758 127.032 75.5234C125.187 74.3317 123.051 73.7014 120.856 73.7014C120.751 73.7093 120.683 73.7136 120.613 73.715C120.222 73.71 119.857 73.5727 119.582 73.3025C119.307 73.0322 119.153 72.6628 119.153 72.2775V68.3589C119.153 67.0299 119.079 65.6478 118.935 64.2476C118.893 63.843 119.025 63.4398 119.297 63.1372C119.57 62.8353 119.958 62.6628 120.365 62.6628H127.811C128.604 62.6628 129.248 63.3068 129.248 64.1003V74.3159C129.248 74.842 128.961 75.3265 128.499 75.5787C128.285 75.6937 128.048 75.7527 127.812 75.7527ZM122.029 70.8731C123.529 70.9967 124.993 71.3561 126.375 71.9361V65.5364H121.931C121.996 66.4923 122.029 67.4367 122.029 68.3575V70.8731Z" fill="#3762CC"/>
<path d="M89.513 112.177H67.962C65.9625 112.177 64.3367 110.55 64.3367 108.551C64.3367 102.264 69.4513 97.1498 75.7382 97.1498H81.7376C88.0245 97.1498 93.1391 102.264 93.1391 108.551C93.1384 110.551 91.5119 112.177 89.513 112.177ZM75.7382 100.025C71.0369 100.025 67.2117 103.849 67.2117 108.551C67.2117 108.965 67.5488 109.302 67.962 109.302H89.5123C89.9263 109.302 90.2627 108.965 90.2627 108.551C90.2627 103.849 86.4375 100.025 81.7362 100.025H75.7382Z" fill="#3762CC"/>
<path d="M122.946 145.9C122.672 145.703 122.437 145.442 122.265 145.124C121.661 144.004 122.079 142.608 123.199 142.004L134.63 135.839L131.699 133.731C131.055 133.268 130.694 132.506 130.745 131.714C130.796 130.922 131.25 130.212 131.948 129.835L146.637 121.898C147.757 121.293 149.153 121.709 149.759 122.829C150.363 123.948 149.946 125.346 148.828 125.95L137.374 132.139L140.309 134.249C140.953 134.712 141.313 135.474 141.262 136.266C141.211 137.058 140.756 137.769 140.057 138.145L125.385 146.058C124.584 146.491 123.639 146.399 122.946 145.9Z" fill="#FFEA92"/>
<path d="M160.981 148.767C161.131 149.069 161.216 149.411 161.219 149.772C161.229 151.044 160.205 152.082 158.933 152.091L145.945 152.187L147.549 155.422C147.901 156.133 147.863 156.974 147.447 157.651C147.031 158.326 146.297 158.741 145.505 158.747L128.809 158.883C127.537 158.893 126.497 157.872 126.487 156.598C126.477 155.326 127.499 154.286 128.771 154.276L141.79 154.171L140.185 150.932C139.833 150.221 139.871 149.379 140.288 148.703C140.703 148.027 141.439 147.613 142.232 147.608L158.901 147.485C159.81 147.479 160.602 148.003 160.981 148.767Z" fill="#FFEA92"/>
<path d="M114.366 140.626C114.033 140.68 113.682 140.662 113.336 140.559C112.117 140.194 111.426 138.911 111.791 137.692L115.514 125.249L111.95 125.832C111.168 125.96 110.374 125.676 109.849 125.08C109.326 124.484 109.145 123.66 109.371 122.901L114.146 106.901C114.51 105.682 115.791 104.989 117.012 105.353C118.23 105.717 118.924 107 118.56 108.218L114.837 120.693L118.404 120.11C119.187 119.982 119.982 120.266 120.505 120.863C121.029 121.459 121.209 122.283 120.981 123.044L116.202 139.013C115.941 139.885 115.208 140.488 114.366 140.626Z" fill="#FFEA92"/>
</svg>
