<svg width="414" height="639" viewBox="0 0 414 639" fill="none" xmlns="http://www.w3.org/2000/svg">
<path d="M498.345 639H2.65517C-7.86203 639 -17.9485 633.965 -25.3853 625.002C-32.8221 616.039 -37 603.882 -37 591.207V-54H379.379L498.345 89.3793V639Z" fill="#E5E4D1"/>
<path d="M498.345 89.3793H379.379V-54L498.345 89.3793Z" fill="#C6C3A7"/>
<path d="M399.207 -30.1035H498.345V89.3792L399.207 -30.1035Z" fill="#E5E4D1"/>
<path d="M62.1379 77.4311H59.0944L29.353 -18.1552H-7.25862V101.328H12.569V5.7414H15.6125L45.3539 101.328H81.9655V-18.1552H62.1379V77.4311Z" fill="#D75745"/>
<path d="M250.5 77.4311H247.298L229.969 25.2051C229.234 22.9841 227.964 21.0795 226.322 19.7377C224.68 18.3959 222.742 17.6787 220.759 17.6787C218.775 17.6787 216.837 18.3959 215.195 19.7377C213.553 21.0795 212.283 22.9841 211.549 25.2051L194.219 77.4311H191.017V-18.1552H171.19V89.3793C171.19 92.5482 172.234 95.5873 174.093 97.828C175.953 100.069 178.474 101.328 181.103 101.328H200.931C202.914 101.328 204.851 100.613 206.493 99.2731C208.135 97.9334 209.405 96.0312 210.141 93.8121L220.759 61.8027L231.376 93.8121C232.112 96.0312 233.383 97.9334 235.024 99.2731C236.666 100.613 238.604 101.328 240.586 101.328H260.414C263.043 101.328 265.565 100.069 267.424 97.828C269.283 95.5873 270.328 92.5482 270.328 89.3793V-18.1552H250.5V77.4311Z" fill="#D75745"/>
<path d="M101.793 101.328H151.362V77.4311H121.621V53.5345H151.362V29.638H121.621V5.7414H151.362V-18.1552H101.793V101.328Z" fill="#D75745"/>
<path d="M349.638 5.7414V-18.1552H300.069C297.44 -18.1552 294.918 -16.8963 293.059 -14.6556C291.2 -12.4148 290.155 -9.37576 290.155 -6.20687V41.5862C290.155 44.7551 291.2 47.7942 293.059 50.0349C294.918 52.2757 297.44 53.5345 300.069 53.5345H329.81V77.4311H290.155V101.328H339.724C342.353 101.328 344.875 100.069 346.734 97.828C348.593 95.5873 349.638 92.5482 349.638 89.3793V41.5862C349.638 38.4174 348.593 35.3783 346.734 33.1375C344.875 30.8968 342.353 29.638 339.724 29.638H309.983V5.7414H349.638Z" fill="#D75745"/>
<path d="M-7.25862 125.224H468.603V149.121H-7.25862V125.224Z" fill="#2D75BB"/>
<path d="M3.12537 197.465H468.329V619.515H3.12537V197.465Z" fill="#D6CDBE"/>
</svg>
