<svg width="85" height="151" viewBox="0 0 85 151" fill="none" xmlns="http://www.w3.org/2000/svg">
<path d="M42.338 116.711C36.816 116.711 32.338 112.234 32.338 106.711V82.6858C32.338 73.7288 38.468 66.1008 47.246 64.1368C58.08 61.7128 65.387 51.8708 64.619 40.7338C63.859 29.7068 54.97 20.8178 43.942 20.0578C37.652 19.6238 31.674 21.7368 27.1 26.0058C22.522 30.2788 20 36.0798 20 42.3388C20 47.8618 15.522 52.3388 10 52.3388C4.478 52.3388 0 47.8618 0 42.3388C0 30.6478 4.903 19.3658 13.453 11.3848C22.122 3.29184 33.448 -0.711158 45.316 0.103842C66.252 1.54684 83.128 18.4228 84.571 39.3578C86.006 60.1788 72.487 78.6169 52.337 83.4848V106.711C52.338 112.234 47.861 116.711 42.338 116.711Z" fill="#E79A74"/>
<path d="M42 151C39.37 151 36.79 149.94 34.93 148.08C33.071 146.22 32 143.64 32 141C32 138.37 33.07 135.79 34.93 133.93C36.79 132.07 39.37 131 42 131C44.63 131 47.21 132.07 49.07 133.93C50.929 135.79 52 138.37 52 141C52 143.64 50.93 146.21 49.07 148.08C47.21 149.94 44.63 151 42 151Z" fill="#E79A74"/>
</svg>
