<svg width="335" height="166" viewBox="0 0 335 166" fill="none" xmlns="http://www.w3.org/2000/svg">
<path d="M283.5 411.75V384.75L317.25 292.95V222.75C317.25 195.897 306.583 170.143 287.595 151.155C268.607 132.167 242.853 121.5 216 121.5H209.25C182.397 121.5 156.643 132.167 137.655 151.155C118.667 170.143 108 195.897 108 222.75V265.95L74.25 303.75V330.75H108L121.5 384.75H175.5V411.75H283.5Z" fill="#57CEE6"/>
<path d="M168.75 222.75H168.523L134.038 165.277L122.462 172.223L156.945 229.696C155.507 232.285 154.961 235.276 155.39 238.207C155.819 241.137 157.201 243.846 159.321 245.914C161.441 247.982 164.183 249.296 167.124 249.652C170.064 250.008 173.04 249.387 175.593 247.885C178.146 246.383 180.134 244.083 181.251 241.34C182.368 238.596 182.551 235.562 181.773 232.704C180.995 229.846 179.299 227.323 176.945 225.524C174.592 223.725 171.712 222.751 168.75 222.75Z" fill="#ECFBF9"/>
<path d="M101.25 182.25C145.985 182.25 182.25 145.985 182.25 101.25C182.25 56.5149 145.985 20.25 101.25 20.25C56.5149 20.25 20.25 56.5149 20.25 101.25C20.25 145.985 56.5149 182.25 101.25 182.25Z" fill="#FAC850"/>
<path d="M94.5 94.5H81C81 90.9196 79.5777 87.4858 77.0459 84.9541C74.5142 82.4223 71.0804 81 67.5 81C63.9196 81 60.4858 82.4223 57.9541 84.9541C55.4223 87.4858 54 90.9196 54 94.5H40.5C40.5 87.3392 43.3446 80.4716 48.4081 75.4081C53.4716 70.3446 60.3392 67.5 67.5 67.5C74.6608 67.5 81.5284 70.3446 86.5919 75.4081C91.6554 80.4716 94.5 87.3392 94.5 94.5Z" fill="#FFFDFA"/>
<path d="M162 94.5H148.5C148.5 90.9196 147.078 87.4858 144.546 84.9541C142.014 82.4223 138.58 81 135 81C131.42 81 127.986 82.4223 125.454 84.9541C122.922 87.4858 121.5 90.9196 121.5 94.5H108C108 87.3392 110.845 80.4716 115.908 75.4081C120.972 70.3446 127.839 67.5 135 67.5C142.161 67.5 149.028 70.3446 154.092 75.4081C159.155 80.4716 162 87.3392 162 94.5Z" fill="#FFFDFA"/>
<path d="M101.25 155.25C90.5124 155.238 80.2181 150.967 72.6255 143.375C65.0329 135.782 60.7621 125.488 60.75 114.75H74.25C74.25 121.911 77.0946 128.778 82.1581 133.842C87.2216 138.905 94.0892 141.75 101.25 141.75C108.411 141.75 115.278 138.905 120.342 133.842C125.405 128.778 128.25 121.911 128.25 114.75H141.75C141.738 125.488 137.467 135.782 129.875 143.375C122.282 150.967 111.988 155.238 101.25 155.25Z" fill="#FFFDFA"/>
<path d="M309.538 172.223L297.962 165.277L263.477 222.75H263.25C260.29 222.751 257.412 223.726 255.06 225.524C252.709 227.323 251.014 229.844 250.237 232.701C249.459 235.557 249.643 238.59 250.759 241.331C251.876 244.073 253.862 246.372 256.414 247.873C258.965 249.374 261.939 249.994 264.878 249.639C267.817 249.283 270.557 247.97 272.677 245.904C274.796 243.837 276.177 241.131 276.607 238.202C277.036 235.273 276.491 232.284 275.055 229.696L309.538 172.223Z" fill="#ECFBF9"/>
<path d="M330.75 182.25C375.485 182.25 411.75 145.985 411.75 101.25C411.75 56.5149 375.485 20.25 330.75 20.25C286.015 20.25 249.75 56.5149 249.75 101.25C249.75 145.985 286.015 182.25 330.75 182.25Z" fill="#C85AED"/>
<path d="M297 101.25C289.842 101.242 282.979 98.3947 277.917 93.333C272.855 88.2713 270.008 81.4084 270 74.25H283.5C283.5 77.8304 284.922 81.2642 287.454 83.7959C289.986 86.3277 293.42 87.75 297 87.75C300.58 87.75 304.014 86.3277 306.546 83.7959C309.078 81.2642 310.5 77.8304 310.5 74.25H324C323.992 81.4084 321.145 88.2713 316.083 93.333C311.021 98.3947 304.158 101.242 297 101.25Z" fill="#F5F1FF"/>
<path d="M371.25 148.5H357.75C357.75 141.339 354.905 134.472 349.842 129.408C344.778 124.345 337.911 121.5 330.75 121.5C323.589 121.5 316.722 124.345 311.658 129.408C306.595 134.472 303.75 141.339 303.75 148.5H290.25C290.25 137.759 294.517 127.457 302.112 119.862C309.707 112.267 320.009 108 330.75 108C341.491 108 351.793 112.267 359.388 119.862C366.983 127.457 371.25 137.759 371.25 148.5Z" fill="#F5F1FF"/>
</svg>
