<svg width="304" height="294" viewBox="0 0 304 294" fill="none" xmlns="http://www.w3.org/2000/svg">
<path d="M186.295 212.002C186.295 214.685 188.001 216.353 190.738 216.353C193.482 216.353 195.181 214.685 195.181 212.002V170.665H199.624V212.002C199.624 214.68 201.328 216.353 204.067 216.353C206.806 216.353 208.51 214.685 208.51 212.002V142.381H210.732V168.084C210.732 173.295 217.41 173.295 217.396 168.084V141.644C217.396 135.887 213.162 131.503 206.289 131.503H188.516C182.252 131.503 177.409 135.243 177.409 141.483V168.489C177.409 172.84 184.073 172.84 184.073 168.489V142.381H186.295V212.002Z" fill="white"/>
<path d="M186.295 212.002C186.295 214.685 188.001 216.353 190.738 216.353C193.482 216.353 195.181 214.685 195.181 212.002V170.665H199.624V212.002C199.624 214.68 201.328 216.353 204.067 216.353C206.806 216.353 208.51 214.685 208.51 212.002V142.381H210.732V168.084C210.732 173.295 217.41 173.295 217.396 168.084V141.644C217.396 135.887 213.162 131.503 206.289 131.503H188.516C182.252 131.503 177.409 135.243 177.409 141.483V168.489C177.409 172.84 184.073 172.84 184.073 168.489V142.381H186.295V212.002Z" stroke="black"/>
<path d="M197.241 128.979C202.317 128.979 206.432 124.955 206.432 119.99C206.432 115.025 202.317 111 197.241 111C192.165 111 188.051 115.025 188.051 119.99C188.051 124.955 192.165 128.979 197.241 128.979Z" fill="white"/>
<path d="M197.241 128.979C202.317 128.979 206.432 124.955 206.432 119.99C206.432 115.025 202.317 111 197.241 111C192.165 111 188.051 115.025 188.051 119.99C188.051 124.955 192.165 128.979 197.241 128.979Z" stroke="black"/>
<path d="M140.134 212.002C140.134 214.685 141.84 216.353 144.577 216.353C147.32 216.353 149.02 214.685 149.02 212.002V170.665H153.463V212.002C153.463 214.68 155.167 216.353 157.906 216.353C160.645 216.353 162.349 214.685 162.349 212.002V142.381H164.571V168.084C164.571 173.295 171.249 173.295 171.235 168.084V141.644C171.235 135.887 167.001 131.503 160.128 131.503H142.355C136.091 131.503 131.248 135.243 131.248 141.483V168.489C131.248 172.84 137.912 172.84 137.912 168.489V142.381H140.134V212.002Z" fill="white"/>
<path d="M140.134 212.002C140.134 214.685 141.84 216.353 144.577 216.353C147.32 216.353 149.02 214.685 149.02 212.002V170.665H153.463V212.002C153.463 214.68 155.167 216.353 157.906 216.353C160.645 216.353 162.349 214.685 162.349 212.002V142.381H164.571V168.084C164.571 173.295 171.249 173.295 171.235 168.084V141.644C171.235 135.887 167.001 131.503 160.128 131.503H142.355C136.091 131.503 131.248 135.243 131.248 141.483V168.489C131.248 172.84 137.912 172.84 137.912 168.489V142.381H140.134V212.002Z" stroke="black"/>
<path d="M151.08 128.979C156.156 128.979 160.271 124.955 160.271 119.99C160.271 115.025 156.156 111 151.08 111C146.004 111 141.889 115.025 141.889 119.99C141.889 124.955 146.004 128.979 151.08 128.979Z" fill="white"/>
<path d="M151.08 128.979C156.156 128.979 160.271 124.955 160.271 119.99C160.271 115.025 156.156 111 151.08 111C146.004 111 141.889 115.025 141.889 119.99C141.889 124.955 146.004 128.979 151.08 128.979Z" stroke="black"/>
<path d="M93.9728 212.002C93.9728 214.685 95.679 216.353 98.4159 216.353C101.16 216.353 102.859 214.685 102.859 212.002V170.665H107.302V212.002C107.302 214.68 109.006 216.353 111.745 216.353C114.484 216.353 116.188 214.685 116.188 212.002V142.381H118.41V168.084C118.41 173.295 125.088 173.295 125.074 168.084V141.644C125.074 135.887 120.84 131.503 113.967 131.503H96.1944C89.9296 131.503 85.0867 135.243 85.0867 141.483V168.489C85.0867 172.84 91.7513 172.84 91.7513 168.489V142.381H93.9728V212.002Z" fill="white"/>
<path d="M93.9728 212.002C93.9728 214.685 95.679 216.353 98.4159 216.353C101.16 216.353 102.859 214.685 102.859 212.002V170.665H107.302V212.002C107.302 214.68 109.006 216.353 111.745 216.353C114.484 216.353 116.188 214.685 116.188 212.002V142.381H118.41V168.084C118.41 173.295 125.088 173.295 125.074 168.084V141.644C125.074 135.887 120.84 131.503 113.967 131.503H96.1944C89.9296 131.503 85.0867 135.243 85.0867 141.483V168.489C85.0867 172.84 91.7513 172.84 91.7513 168.489V142.381H93.9728V212.002Z" stroke="black"/>
<path d="M104.919 128.979C109.995 128.979 114.11 124.955 114.11 119.99C114.11 115.025 109.995 111 104.919 111C99.8433 111 95.7285 115.025 95.7285 119.99C95.7285 124.955 99.8433 128.979 104.919 128.979Z" fill="white"/>
<path d="M104.919 128.979C109.995 128.979 114.11 124.955 114.11 119.99C114.11 115.025 109.995 111 104.919 111C99.8433 111 95.7285 115.025 95.7285 119.99C95.7285 124.955 99.8433 128.979 104.919 128.979Z" stroke="black"/>
<path d="M47.8119 212.002C47.8119 214.685 49.5181 216.353 52.255 216.353C54.9986 216.353 56.6981 214.685 56.6981 212.002V170.665H61.1412V212.002C61.1412 214.68 62.8451 216.353 65.5843 216.353C68.3234 216.353 70.0274 214.685 70.0274 212.002V142.381H72.2489V168.084C72.2489 173.295 78.9269 173.295 78.9135 168.084V141.644C78.9135 135.887 74.6793 131.503 67.8058 131.503H50.0335C43.7687 131.503 38.9258 135.243 38.9258 141.483V168.489C38.9258 172.84 45.5904 172.84 45.5904 168.489V142.381H47.8119V212.002Z" fill="white"/>
<path d="M47.8119 212.002C47.8119 214.685 49.5181 216.353 52.255 216.353C54.9986 216.353 56.6981 214.685 56.6981 212.002V170.665H61.1412V212.002C61.1412 214.68 62.8451 216.353 65.5843 216.353C68.3234 216.353 70.0274 214.685 70.0274 212.002V142.381H72.2489V168.084C72.2489 173.295 78.9269 173.295 78.9135 168.084V141.644C78.9135 135.887 74.6793 131.503 67.8058 131.503H50.0335C43.7687 131.503 38.9258 135.243 38.9258 141.483V168.489C38.9258 172.84 45.5904 172.84 45.5904 168.489V142.381H47.8119V212.002Z" stroke="black"/>
<path d="M58.7584 128.979C63.8343 128.979 67.9491 124.955 67.9491 119.99C67.9491 115.025 63.8343 111 58.7584 111C53.6825 111 49.5676 115.025 49.5676 119.99C49.5676 124.955 53.6825 128.979 58.7584 128.979Z" fill="white"/>
<path d="M58.7584 128.979C63.8343 128.979 67.9491 124.955 67.9491 119.99C67.9491 115.025 63.8343 111 58.7584 111C53.6825 111 49.5676 115.025 49.5676 119.99C49.5676 124.955 53.6825 128.979 58.7584 128.979Z" stroke="black"/>
<path d="M232.886 212.002C232.886 214.685 234.592 216.353 237.329 216.353C240.073 216.353 241.772 214.685 241.772 212.002V170.665H246.215V212.002C246.215 214.68 247.919 216.353 250.658 216.353C253.398 216.353 255.102 214.685 255.102 212.002V142.381H257.323V168.084C257.323 173.295 264.001 173.295 263.988 168.084V141.644C263.988 135.887 259.753 131.503 252.88 131.503H235.108C228.843 131.503 224 135.243 224 141.483V168.489C224 172.84 230.665 172.84 230.665 168.489V142.381H232.886V212.002Z" fill="#E67571"/>
<path d="M232.886 212.002C232.886 214.685 234.592 216.353 237.329 216.353C240.073 216.353 241.772 214.685 241.772 212.002V170.665H246.215V212.002C246.215 214.68 247.919 216.353 250.658 216.353C253.398 216.353 255.102 214.685 255.102 212.002V142.381H257.323V168.084C257.323 173.295 264.001 173.295 263.988 168.084V141.644C263.988 135.887 259.753 131.503 252.88 131.503H235.108C228.843 131.503 224 135.243 224 141.483V168.489C224 172.84 230.665 172.84 230.665 168.489V142.381H232.886V212.002Z" stroke="black"/>
<path d="M243.833 128.979C248.909 128.979 253.023 124.955 253.023 119.99C253.023 115.025 248.909 111 243.833 111C238.757 111 234.642 115.025 234.642 119.99C234.642 124.955 238.757 128.979 243.833 128.979Z" fill="#E67571"/>
<path d="M243.833 128.979C248.909 128.979 253.023 124.955 253.023 119.99C253.023 115.025 248.909 111 243.833 111C238.757 111 234.642 115.025 234.642 119.99C234.642 124.955 238.757 128.979 243.833 128.979Z" stroke="black"/>
<path d="M187.369 101.002C187.369 103.685 189.075 105.353 191.812 105.353C194.556 105.353 196.255 103.685 196.255 101.002V59.6647H200.699V101.002C200.699 103.68 202.402 105.353 205.142 105.353C207.881 105.353 209.585 103.685 209.585 101.002V31.3812H211.806V57.0844C211.806 62.2951 218.484 62.2951 218.471 57.0844V30.6436C218.471 24.8868 214.237 20.5029 207.363 20.5029H189.591C183.326 20.5029 178.483 24.2429 178.483 30.4826V57.4891C178.483 61.8404 185.148 61.8404 185.148 57.4891V31.3812H187.369V101.002Z" fill="white"/>
<path d="M187.369 101.002C187.369 103.685 189.075 105.353 191.812 105.353C194.556 105.353 196.255 103.685 196.255 101.002V59.6647H200.699V101.002C200.699 103.68 202.402 105.353 205.142 105.353C207.881 105.353 209.585 103.685 209.585 101.002V31.3812H211.806V57.0844C211.806 62.2951 218.484 62.2951 218.471 57.0844V30.6436C218.471 24.8868 214.237 20.5029 207.363 20.5029H189.591C183.326 20.5029 178.483 24.2429 178.483 30.4826V57.4891C178.483 61.8404 185.148 61.8404 185.148 57.4891V31.3812H187.369V101.002Z" stroke="black"/>
<path d="M198.316 17.9795C203.392 17.9795 207.507 13.9546 207.507 8.98975C207.507 4.02485 203.392 0 198.316 0C193.24 0 189.125 4.02485 189.125 8.98975C189.125 13.9546 193.24 17.9795 198.316 17.9795Z" fill="white"/>
<path d="M198.316 17.9795C203.392 17.9795 207.507 13.9546 207.507 8.98975C207.507 4.02485 203.392 0 198.316 0C193.24 0 189.125 4.02485 189.125 8.98975C189.125 13.9546 193.24 17.9795 198.316 17.9795Z" stroke="black"/>
<path d="M141.208 101.002C141.208 103.685 142.914 105.353 145.651 105.353C148.395 105.353 150.094 103.685 150.094 101.002V59.6647H154.537V101.002C154.537 103.68 156.241 105.353 158.98 105.353C161.72 105.353 163.424 103.685 163.424 101.002V31.3812H165.645V57.0844C165.645 62.2951 172.323 62.2951 172.31 57.0844V30.6436C172.31 24.8868 168.075 20.5029 161.202 20.5029H143.43C137.165 20.5029 132.322 24.2429 132.322 30.4826V57.4891C132.322 61.8404 138.987 61.8404 138.987 57.4891V31.3812H141.208V101.002Z" fill="white"/>
<path d="M141.208 101.002C141.208 103.685 142.914 105.353 145.651 105.353C148.395 105.353 150.094 103.685 150.094 101.002V59.6647H154.537V101.002C154.537 103.68 156.241 105.353 158.98 105.353C161.72 105.353 163.424 103.685 163.424 101.002V31.3812H165.645V57.0844C165.645 62.2951 172.323 62.2951 172.31 57.0844V30.6436C172.31 24.8868 168.075 20.5029 161.202 20.5029H143.43C137.165 20.5029 132.322 24.2429 132.322 30.4826V57.4891C132.322 61.8404 138.987 61.8404 138.987 57.4891V31.3812H141.208V101.002Z" stroke="black"/>
<path d="M152.155 17.9795C157.231 17.9795 161.345 13.9546 161.345 8.98975C161.345 4.02485 157.231 0 152.155 0C147.079 0 142.964 4.02485 142.964 8.98975C142.964 13.9546 147.079 17.9795 152.155 17.9795Z" fill="white"/>
<path d="M152.155 17.9795C157.231 17.9795 161.345 13.9546 161.345 8.98975C161.345 4.02485 157.231 0 152.155 0C147.079 0 142.964 4.02485 142.964 8.98975C142.964 13.9546 147.079 17.9795 152.155 17.9795Z" stroke="black"/>
<path d="M95.0473 101.002C95.0473 103.685 96.7534 105.353 99.4904 105.353C102.234 105.353 103.933 103.685 103.933 101.002V59.6647H108.377V101.002C108.377 103.68 110.08 105.353 112.82 105.353C115.559 105.353 117.263 103.685 117.263 101.002V31.3812H119.484V57.0844C119.484 62.2951 126.162 62.2951 126.149 57.0844V30.6436C126.149 24.8868 121.915 20.5029 115.041 20.5029H97.2688C91.0041 20.5029 86.1611 24.2429 86.1611 30.4826V57.4891C86.1611 61.8404 92.8258 61.8404 92.8258 57.4891V31.3812H95.0473V101.002Z" fill="white"/>
<path d="M95.0473 101.002C95.0473 103.685 96.7534 105.353 99.4904 105.353C102.234 105.353 103.933 103.685 103.933 101.002V59.6647H108.377V101.002C108.377 103.68 110.08 105.353 112.82 105.353C115.559 105.353 117.263 103.685 117.263 101.002V31.3812H119.484V57.0844C119.484 62.2951 126.162 62.2951 126.149 57.0844V30.6436C126.149 24.8868 121.915 20.5029 115.041 20.5029H97.2688C91.0041 20.5029 86.1611 24.2429 86.1611 30.4826V57.4891C86.1611 61.8404 92.8258 61.8404 92.8258 57.4891V31.3812H95.0473V101.002Z" stroke="black"/>
<path d="M105.994 17.9795C111.07 17.9795 115.184 13.9546 115.184 8.98975C115.184 4.02485 111.07 0 105.994 0C100.918 0 96.803 4.02485 96.803 8.98975C96.803 13.9546 100.918 17.9795 105.994 17.9795Z" fill="white"/>
<path d="M105.994 17.9795C111.07 17.9795 115.184 13.9546 115.184 8.98975C115.184 4.02485 111.07 0 105.994 0C100.918 0 96.803 4.02485 96.803 8.98975C96.803 13.9546 100.918 17.9795 105.994 17.9795Z" stroke="black"/>
<path d="M48.8862 101.002C48.8862 103.685 50.5923 105.353 53.3292 105.353C56.0729 105.353 57.7723 103.685 57.7723 101.002V59.6647H62.2154V101.002C62.2154 103.68 63.9193 105.353 66.6585 105.353C69.3977 105.353 71.1016 103.685 71.1016 101.002V31.3812H73.3231V57.0844C73.3231 62.2951 80.0011 62.2951 79.9877 57.0844V30.6436C79.9877 24.8868 75.7535 20.5029 68.88 20.5029H51.1077C44.843 20.5029 40 24.2429 40 30.4826V57.4891C40 61.8404 46.6646 61.8404 46.6646 57.4891V31.3812H48.8862V101.002Z" fill="white"/>
<path d="M48.8862 101.002C48.8862 103.685 50.5923 105.353 53.3292 105.353C56.0729 105.353 57.7723 103.685 57.7723 101.002V59.6647H62.2154V101.002C62.2154 103.68 63.9193 105.353 66.6585 105.353C69.3977 105.353 71.1016 103.685 71.1016 101.002V31.3812H73.3231V57.0844C73.3231 62.2951 80.0011 62.2951 79.9877 57.0844V30.6436C79.9877 24.8868 75.7535 20.5029 68.88 20.5029H51.1077C44.843 20.5029 40 24.2429 40 30.4826V57.4891C40 61.8404 46.6646 61.8404 46.6646 57.4891V31.3812H48.8862V101.002Z" stroke="black"/>
<path d="M59.8326 17.9795C64.9085 17.9795 69.0233 13.9546 69.0233 8.98975C69.0233 4.02485 64.9085 0 59.8326 0C54.7567 0 50.6418 4.02485 50.6418 8.98975C50.6418 13.9546 54.7567 17.9795 59.8326 17.9795Z" fill="white"/>
<path d="M59.8326 17.9795C64.9085 17.9795 69.0233 13.9546 69.0233 8.98975C69.0233 4.02485 64.9085 0 59.8326 0C54.7567 0 50.6418 4.02485 50.6418 8.98975C50.6418 13.9546 54.7567 17.9795 59.8326 17.9795Z" stroke="black"/>
<path d="M233.53 101.002C233.53 103.685 235.236 105.353 237.973 105.353C240.717 105.353 242.416 103.685 242.416 101.002V59.6647H246.859V101.002C246.859 103.68 248.563 105.353 251.303 105.353C254.042 105.353 255.746 103.685 255.746 101.002V31.3812H257.967V57.0844C257.967 62.2951 264.645 62.2951 264.632 57.0844V30.6436C264.632 24.8868 260.397 20.5029 253.524 20.5029H235.752C229.487 20.5029 224.644 24.2429 224.644 30.4826V57.4891C224.644 61.8404 231.309 61.8404 231.309 57.4891V31.3812H233.53V101.002Z" fill="white"/>
<path d="M233.53 101.002C233.53 103.685 235.236 105.353 237.973 105.353C240.717 105.353 242.416 103.685 242.416 101.002V59.6647H246.859V101.002C246.859 103.68 248.563 105.353 251.303 105.353C254.042 105.353 255.746 103.685 255.746 101.002V31.3812H257.967V57.0844C257.967 62.2951 264.645 62.2951 264.632 57.0844V30.6436C264.632 24.8868 260.397 20.5029 253.524 20.5029H235.752C229.487 20.5029 224.644 24.2429 224.644 30.4826V57.4891C224.644 61.8404 231.309 61.8404 231.309 57.4891V31.3812H233.53V101.002Z" stroke="black"/>
<path d="M244.477 17.9795C249.553 17.9795 253.667 13.9546 253.667 8.98975C253.667 4.02485 249.553 0 244.477 0C239.401 0 235.286 4.02485 235.286 8.98975C235.286 13.9546 239.401 17.9795 244.477 17.9795Z" fill="white"/>
<path d="M244.477 17.9795C249.553 17.9795 253.667 13.9546 253.667 8.98975C253.667 4.02485 249.553 0 244.477 0C239.401 0 235.286 4.02485 235.286 8.98975C235.286 13.9546 239.401 17.9795 244.477 17.9795Z" stroke="black"/>
<path d="M36.97 249.222C42.316 249.222 46.254 245.328 46.254 240.004C46.254 234.68 42.294 230.786 36.948 230.786C31.602 230.786 27.664 234.68 27.664 240.004C27.664 245.328 31.624 249.222 36.97 249.222ZM36.97 247.11C32.944 247.11 29.974 244.14 29.974 240.004C29.974 235.846 32.922 232.898 36.948 232.898C40.974 232.898 43.944 235.846 43.944 240.004C43.944 244.14 40.974 247.11 36.97 247.11ZM49.1853 236.242V248.826H51.4513V242.314C51.4513 239.982 53.0353 237.914 55.2353 237.914C57.2813 237.914 58.5133 239.3 58.5133 241.852V248.826H60.7793V241.456C60.7793 238.068 58.6893 235.934 55.7193 235.934C53.4093 235.934 51.9793 237.232 51.4513 238.156V236.242H49.1853ZM66.2541 248.826V230.654H63.9881V248.826H66.2541ZM79.2043 236.242L75.0463 246.142L70.9983 236.242H68.5123L73.9023 248.562L71.4163 254.172H73.7043L81.5583 236.242H79.2043ZM95.7701 235.934C92.0301 235.934 89.3241 238.75 89.3241 242.534C89.3241 246.318 92.0301 249.134 95.7701 249.134C99.4881 249.134 102.194 246.318 102.194 242.534C102.194 238.75 99.4881 235.934 95.7701 235.934ZM95.7701 237.936C98.2561 237.936 99.9721 239.916 99.9721 242.534C99.9721 245.152 98.2561 247.132 95.7701 247.132C93.2621 247.132 91.5461 245.152 91.5461 242.534C91.5461 239.916 93.2621 237.936 95.7701 237.936ZM105.088 236.242V248.826H107.354V242.314C107.354 239.982 108.938 237.914 111.138 237.914C113.184 237.914 114.416 239.3 114.416 241.852V248.826H116.682V241.456C116.682 238.068 114.592 235.934 111.622 235.934C109.312 235.934 107.882 237.232 107.354 238.156V236.242H105.088ZM125.544 249.134C128.426 249.134 130.692 247.572 131.374 245.394H129.064C128.602 246.428 127.26 247.22 125.544 247.22C123.3 247.22 121.738 245.614 121.496 243.458H131.792C131.836 243.15 131.836 242.82 131.836 242.534C131.836 238.75 129.218 235.934 125.544 235.934C121.87 235.934 119.23 238.75 119.23 242.534C119.23 246.318 121.87 249.134 125.544 249.134ZM129.614 241.61H121.496C121.738 239.432 123.278 237.848 125.544 237.848C127.81 237.848 129.35 239.41 129.614 241.61ZM142.003 230.434C141.145 230.434 140.507 231.072 140.507 231.93C140.507 232.788 141.145 233.426 142.003 233.426C142.883 233.426 143.521 232.788 143.521 231.93C143.521 231.072 142.883 230.434 142.003 230.434ZM143.147 248.848V236.242H140.881V248.848H143.147ZM146.703 236.242V248.826H148.969V242.314C148.969 239.982 150.553 237.914 152.753 237.914C154.799 237.914 156.031 239.3 156.031 241.852V248.826H158.297V241.456C158.297 238.068 156.207 235.934 153.237 235.934C150.927 235.934 149.497 237.232 148.969 238.156V236.242H146.703ZM173.326 249.134C176.208 249.134 178.474 247.572 179.156 245.394H176.846C176.384 246.428 175.042 247.22 173.326 247.22C171.082 247.22 169.52 245.614 169.278 243.458H179.574C179.618 243.15 179.618 242.82 179.618 242.534C179.618 238.75 177 235.934 173.326 235.934C169.652 235.934 167.012 238.75 167.012 242.534C167.012 246.318 169.652 249.134 173.326 249.134ZM177.396 241.61H169.278C169.52 239.432 171.06 237.848 173.326 237.848C175.592 237.848 177.132 239.41 177.396 241.61ZM191.311 236.242L187.197 246.252L183.083 236.242H180.619L185.921 248.826H188.319L193.643 236.242H191.311ZM200.761 249.134C203.643 249.134 205.909 247.572 206.591 245.394H204.281C203.819 246.428 202.477 247.22 200.761 247.22C198.517 247.22 196.955 245.614 196.713 243.458H207.009C207.053 243.15 207.053 242.82 207.053 242.534C207.053 238.75 204.435 235.934 200.761 235.934C197.087 235.934 194.447 238.75 194.447 242.534C194.447 246.318 197.087 249.134 200.761 249.134ZM204.831 241.61H196.713C196.955 239.432 198.495 237.848 200.761 237.848C203.027 237.848 204.567 239.41 204.831 241.61ZM209.931 236.242V248.826H212.197V242.314C212.197 240.026 214.001 237.958 216.575 237.958C217.345 237.958 217.961 238.09 218.445 238.31V236.154C218.005 236 217.499 235.934 216.729 235.934C214.265 235.934 212.747 237.232 212.197 238.178V236.242H209.931ZM230.304 236.242L226.146 246.142L222.098 236.242H219.612L225.002 248.562L222.516 254.172H224.804L232.658 236.242H230.304ZM247.684 236.242H244.89V232.414H242.624V236.242H239.83V238.244H242.624V248.826H244.89V238.244H247.684V236.242ZM255.267 249.134C258.149 249.134 260.415 247.572 261.097 245.394H258.787C258.325 246.428 256.983 247.22 255.267 247.22C253.023 247.22 251.461 245.614 251.219 243.458H261.515C261.559 243.15 261.559 242.82 261.559 242.534C261.559 238.75 258.941 235.934 255.267 235.934C251.593 235.934 248.953 238.75 248.953 242.534C248.953 246.318 251.593 249.134 255.267 249.134ZM259.337 241.61H251.219C251.461 239.432 253.001 237.848 255.267 237.848C257.533 237.848 259.073 239.41 259.337 241.61ZM264.437 236.242V248.826H266.703V242.314C266.703 239.982 268.287 237.914 270.487 237.914C272.533 237.914 273.765 239.3 273.765 241.852V248.826H276.031V241.456C276.031 238.068 273.941 235.934 270.971 235.934C268.661 235.934 267.231 237.232 266.703 238.156V236.242H264.437ZM65.4456 271.134C69.0096 271.134 71.6716 268.296 71.6716 264.534C71.6716 260.772 69.0096 257.934 65.4456 257.934C63.1576 257.934 61.6176 259.034 60.9796 260.112V258.242H58.7136V276.172H60.9796V268.956C61.6176 270.034 63.1576 271.134 65.4456 271.134ZM65.2476 269.132C62.6956 269.132 60.9356 267.152 60.9356 264.534C60.9356 261.916 62.6956 259.936 65.2476 259.936C67.7776 259.936 69.4496 261.916 69.4496 264.534C69.4496 267.152 67.7776 269.132 65.2476 269.132ZM80.2231 271.134C83.1051 271.134 85.3711 269.572 86.0531 267.394H83.7431C83.2811 268.428 81.9391 269.22 80.2231 269.22C77.9791 269.22 76.4171 267.614 76.1751 265.458H86.4711C86.5151 265.15 86.5151 264.82 86.5151 264.534C86.5151 260.75 83.8971 257.934 80.2231 257.934C76.5491 257.934 73.9091 260.75 73.9091 264.534C73.9091 268.318 76.5491 271.134 80.2231 271.134ZM84.2931 263.61H76.1751C76.4171 261.432 77.9571 259.848 80.2231 259.848C82.4891 259.848 84.0291 261.41 84.2931 263.61ZM95.1793 257.934C91.4393 257.934 88.7333 260.75 88.7333 264.534C88.7333 268.318 91.4393 271.134 95.1793 271.134C98.8973 271.134 101.603 268.318 101.603 264.534C101.603 260.75 98.8973 257.934 95.1793 257.934ZM95.1793 259.936C97.6653 259.936 99.3813 261.916 99.3813 264.534C99.3813 267.152 97.6653 269.132 95.1793 269.132C92.6713 269.132 90.9553 267.152 90.9553 264.534C90.9553 261.916 92.6713 259.936 95.1793 259.936ZM111.229 271.134C114.793 271.134 117.455 268.296 117.455 264.534C117.455 260.772 114.793 257.934 111.229 257.934C108.941 257.934 107.401 259.034 106.763 260.112V258.242H104.497V276.172H106.763V268.956C107.401 270.034 108.941 271.134 111.229 271.134ZM111.031 269.132C108.479 269.132 106.719 267.152 106.719 264.534C106.719 261.916 108.479 259.936 111.031 259.936C113.561 259.936 115.233 261.916 115.233 264.534C115.233 267.152 113.561 269.132 111.031 269.132ZM122.618 270.826V252.654H120.352V270.826H122.618ZM131.829 271.134C134.711 271.134 136.977 269.572 137.659 267.394H135.349C134.887 268.428 133.545 269.22 131.829 269.22C129.585 269.22 128.023 267.614 127.781 265.458H138.077C138.121 265.15 138.121 264.82 138.121 264.534C138.121 260.75 135.503 257.934 131.829 257.934C128.155 257.934 125.515 260.75 125.515 264.534C125.515 268.318 128.155 271.134 131.829 271.134ZM135.899 263.61H127.781C128.023 261.432 129.563 259.848 131.829 259.848C134.095 259.848 135.635 261.41 135.899 263.61ZM163.819 258.242L160.497 268.076L157.197 258.242H154.909L151.631 268.01L148.331 258.242H145.977L150.421 270.826H152.709L156.009 261.19L159.331 270.826H161.619L166.063 258.242H163.819ZM169.556 252.434C168.698 252.434 168.06 253.072 168.06 253.93C168.06 254.788 168.698 255.426 169.556 255.426C170.436 255.426 171.074 254.788 171.074 253.93C171.074 253.072 170.436 252.434 169.556 252.434ZM170.7 270.848V258.242H168.434V270.848H170.7ZM176.523 270.826V252.654H174.257V270.826H176.523ZM182.345 270.826V252.654H180.079V270.826H182.345ZM197.017 257.934C193.937 257.934 191.583 259.364 191.583 261.586C191.583 263.786 193.167 264.886 196.599 265.348C199.613 265.744 200.581 266.338 200.581 267.372C200.581 268.494 199.107 269.286 197.171 269.286C194.927 269.286 193.783 268.296 193.651 267.306H191.429C191.583 269.506 193.739 271.134 197.105 271.134C200.229 271.134 202.803 269.682 202.803 267.24C202.803 265.282 201.461 264.05 197.677 263.544C194.597 263.126 193.805 262.488 193.805 261.454C193.805 260.508 195.125 259.782 196.951 259.782C198.777 259.782 200.207 260.53 200.295 261.586H202.517C202.407 259.452 200.097 257.934 197.017 257.934ZM211.321 271.134C214.203 271.134 216.469 269.572 217.151 267.394H214.841C214.379 268.428 213.037 269.22 211.321 269.22C209.077 269.22 207.515 267.614 207.273 265.458H217.569C217.613 265.15 217.613 264.82 217.613 264.534C217.613 260.75 214.995 257.934 211.321 257.934C207.647 257.934 205.007 260.75 205.007 264.534C205.007 268.318 207.647 271.134 211.321 271.134ZM215.391 263.61H207.273C207.515 261.432 209.055 259.848 211.321 259.848C213.587 259.848 215.127 261.41 215.391 263.61ZM226.145 271.134C229.027 271.134 231.293 269.572 231.975 267.394H229.665C229.203 268.428 227.861 269.22 226.145 269.22C223.901 269.22 222.339 267.614 222.097 265.458H232.393C232.437 265.15 232.437 264.82 232.437 264.534C232.437 260.75 229.819 257.934 226.145 257.934C222.471 257.934 219.831 260.75 219.831 264.534C219.831 268.318 222.471 271.134 226.145 271.134ZM230.215 263.61H222.097C222.339 261.432 223.879 259.848 226.145 259.848C228.411 259.848 229.951 261.41 230.215 263.61ZM244.225 270.826H246.909L241.365 263.544L246.381 258.242H243.719L237.449 264.974V252.654H235.183V270.826H237.449V267.68L239.935 265.062L244.225 270.826ZM24.9015 280.242H22.1075V276.414H19.8415V280.242H17.0475V282.244H19.8415V292.826H22.1075V282.244H24.9015V280.242ZM27.239 280.242V292.826H29.505V286.314C29.505 284.026 31.309 281.958 33.883 281.958C34.653 281.958 35.269 282.09 35.753 282.31V280.154C35.313 280 34.807 279.934 34.037 279.934C31.573 279.934 30.055 281.232 29.505 282.178V280.242H27.239ZM42.9907 293.134C45.8727 293.134 48.1387 291.572 48.8207 289.394H46.5107C46.0487 290.428 44.7067 291.22 42.9907 291.22C40.7467 291.22 39.1847 289.614 38.9427 287.458H49.2387C49.2827 287.15 49.2827 286.82 49.2827 286.534C49.2827 282.75 46.6647 279.934 42.9907 279.934C39.3167 279.934 36.6767 282.75 36.6767 286.534C36.6767 290.318 39.3167 293.134 42.9907 293.134ZM47.0607 285.61H38.9427C39.1847 283.432 40.7247 281.848 42.9907 281.848C45.2567 281.848 46.7967 283.41 47.0607 285.61ZM57.7269 293.134C60.0149 293.134 61.5549 292.034 62.1929 290.956V292.826H64.4589V280.242H62.1929V282.112C61.5549 281.034 60.0149 279.934 57.7269 279.934C54.1629 279.934 51.5009 282.772 51.5009 286.534C51.5009 290.296 54.1629 293.134 57.7269 293.134ZM57.9249 291.132C55.3949 291.132 53.7229 289.152 53.7229 286.534C53.7229 283.916 55.3949 281.936 57.9249 281.936C60.4769 281.936 62.2369 283.916 62.2369 286.534C62.2369 289.152 60.4769 291.132 57.9249 291.132ZM74.6164 280.242H71.8224V276.414H69.5564V280.242H66.7624V282.244H69.5564V292.826H71.8224V282.244H74.6164V280.242ZM76.9539 280.242V292.826H79.2199V286.028C79.2199 283.762 80.6059 281.914 82.4759 281.914C84.2359 281.914 85.3579 283.278 85.3579 285.632V292.826H87.6239V286.05C87.6239 283.762 88.9879 281.914 90.8799 281.914C92.6619 281.914 93.7619 283.278 93.7619 285.544V292.826H96.0279V285.17C96.0279 281.98 94.0919 279.934 91.4079 279.934C89.2739 279.934 87.6899 280.99 86.9419 282.574C86.3259 280.968 84.8959 279.934 83.0259 279.934C80.9139 279.934 79.7919 281.1 79.2199 282.024V280.242H76.9539ZM104.909 293.134C107.791 293.134 110.057 291.572 110.739 289.394H108.429C107.967 290.428 106.625 291.22 104.909 291.22C102.665 291.22 101.103 289.614 100.861 287.458H111.157C111.201 287.15 111.201 286.82 111.201 286.534C111.201 282.75 108.583 279.934 104.909 279.934C101.235 279.934 98.5947 282.75 98.5947 286.534C98.5947 290.318 101.235 293.134 104.909 293.134ZM108.979 285.61H100.861C101.103 283.432 102.643 281.848 104.909 281.848C107.175 281.848 108.715 283.41 108.979 285.61ZM114.079 280.242V292.826H116.345V286.314C116.345 283.982 117.929 281.914 120.129 281.914C122.175 281.914 123.407 283.3 123.407 285.852V292.826H125.673V285.456C125.673 282.068 123.583 279.934 120.613 279.934C118.303 279.934 116.873 281.232 116.345 282.156V280.242H114.079ZM135.288 280.242H132.494V276.414H130.228V280.242H127.434V282.244H130.228V292.826H132.494V282.244H135.288V280.242ZM150.128 280.242H147.334V278.174C147.334 277.14 147.906 276.546 148.83 276.546C149.16 276.546 149.6 276.546 149.908 276.612V274.698C149.512 274.61 148.984 274.566 148.434 274.566C146.278 274.566 145.068 276.018 145.068 278.108V280.242H142.582V282.244H145.068V292.826H147.334V282.244H150.128V280.242ZM157.699 279.934C153.959 279.934 151.253 282.75 151.253 286.534C151.253 290.318 153.959 293.134 157.699 293.134C161.417 293.134 164.123 290.318 164.123 286.534C164.123 282.75 161.417 279.934 157.699 279.934ZM157.699 281.936C160.185 281.936 161.901 283.916 161.901 286.534C161.901 289.152 160.185 291.132 157.699 291.132C155.191 291.132 153.475 289.152 153.475 286.534C153.475 283.916 155.191 281.936 157.699 281.936ZM167.016 280.242V292.826H169.282V286.314C169.282 284.026 171.086 281.958 173.66 281.958C174.43 281.958 175.046 282.09 175.53 282.31V280.154C175.09 280 174.584 279.934 173.814 279.934C171.35 279.934 169.832 281.232 169.282 282.178V280.242H167.016ZM189.512 293.134C191.8 293.134 193.34 292.034 193.978 290.956V292.826H196.244V280.242H193.978V282.112C193.34 281.034 191.8 279.934 189.512 279.934C185.948 279.934 183.286 282.772 183.286 286.534C183.286 290.296 185.948 293.134 189.512 293.134ZM189.71 291.132C187.18 291.132 185.508 289.152 185.508 286.534C185.508 283.916 187.18 281.936 189.71 281.936C192.262 281.936 194.022 283.916 194.022 286.534C194.022 289.152 192.262 291.132 189.71 291.132ZM199.802 280.242V292.826H202.068V286.314C202.068 283.982 203.652 281.914 205.852 281.914C207.898 281.914 209.13 283.3 209.13 285.852V292.826H211.396V285.456C211.396 282.068 209.306 279.934 206.336 279.934C204.026 279.934 202.596 281.232 202.068 282.156V280.242H199.802ZM220.39 279.934C216.65 279.934 213.944 282.75 213.944 286.534C213.944 290.318 216.65 293.134 220.39 293.134C224.108 293.134 226.814 290.318 226.814 286.534C226.814 282.75 224.108 279.934 220.39 279.934ZM220.39 281.936C222.876 281.936 224.592 283.916 224.592 286.534C224.592 289.152 222.876 291.132 220.39 291.132C217.882 291.132 216.166 289.152 216.166 286.534C216.166 283.916 217.882 281.936 220.39 281.936ZM229.708 280.242V292.826H231.974V286.314C231.974 284.026 233.778 281.958 236.352 281.958C237.122 281.958 237.738 282.09 238.222 282.31V280.154C237.782 280 237.276 279.934 236.506 279.934C234.042 279.934 232.524 281.232 231.974 282.178V280.242H229.708ZM245.459 293.134C248.341 293.134 250.607 291.572 251.289 289.394H248.979C248.517 290.428 247.175 291.22 245.459 291.22C243.215 291.22 241.653 289.614 241.411 287.458H251.707C251.751 287.15 251.751 286.82 251.751 286.534C251.751 282.75 249.133 279.934 245.459 279.934C241.785 279.934 239.145 282.75 239.145 286.534C239.145 290.318 241.785 293.134 245.459 293.134ZM249.529 285.61H241.411C241.653 283.432 243.193 281.848 245.459 281.848C247.725 281.848 249.265 283.41 249.529 285.61ZM257.402 286.446L252.32 292.826H254.938L258.788 287.964L262.638 292.826H265.41L260.262 286.402L265.146 280.242H262.528L258.876 284.884L255.268 280.242H252.496L257.402 286.446ZM268.707 274.434C267.849 274.434 267.211 275.072 267.211 275.93C267.211 276.788 267.849 277.426 268.707 277.426C269.587 277.426 270.225 276.788 270.225 275.93C270.225 275.072 269.587 274.434 268.707 274.434ZM269.851 292.848V280.242H267.585V292.848H269.851ZM278.973 293.134C281.261 293.134 282.801 292.034 283.439 290.956V292.826H285.705V280.242H283.439V282.112C282.801 281.034 281.261 279.934 278.973 279.934C275.409 279.934 272.747 282.772 272.747 286.534C272.747 290.296 275.409 293.134 278.973 293.134ZM279.171 291.132C276.641 291.132 274.969 289.152 274.969 286.534C274.969 283.916 276.641 281.936 279.171 281.936C281.723 281.936 283.483 283.916 283.483 286.534C283.483 289.152 281.723 291.132 279.171 291.132Z" fill="#26325B"/>
</svg>
