<svg width="264" height="235" viewBox="0 0 264 235" fill="none" xmlns="http://www.w3.org/2000/svg">
<path d="M112.598 15.2656H-32.1055C-54.3047 15.2656 -72.3008 33.2617 -72.3008 55.4609V158.629C-72.3008 180.828 -54.3047 198.824 -32.1055 198.824H11.4254L10.8218 198.876L40.2461 228.301L40.2669 198.824H112.598C134.797 198.824 152.793 180.828 152.793 158.629V55.4609C152.793 33.2617 134.797 15.2656 112.598 15.2656Z" fill="#C7EAFF"/>
<path d="M40.2474 235C38.5036 235 36.7906 234.319 35.5091 233.038L7.99471 205.523H-32.1055C-57.9631 205.523 -79 184.487 -79 158.629V55.4609C-79 29.6033 -57.9631 8.56641 -32.1055 8.56641H35.5566C39.256 8.56641 42.2559 11.5656 42.2559 15.2656C42.2559 18.9656 39.256 21.9648 35.5566 21.9648H-32.1055C-50.5752 21.9648 -65.6016 36.9912 -65.6016 55.4609V158.629C-65.6016 177.099 -50.5752 192.125 -32.1055 192.125H11.4254C14.1654 192.125 16.5342 193.774 17.5692 196.15L33.5589 212.139L33.5683 198.82C33.571 195.122 36.5689 192.125 40.2675 192.125H112.598C131.067 192.125 146.094 177.099 146.094 158.629V112.404C146.094 108.704 149.094 105.705 152.793 105.705C156.492 105.705 159.492 108.704 159.492 112.404V158.629C159.492 184.487 138.455 205.523 112.598 205.523H46.9614L46.9453 228.305C46.9433 231.014 45.3107 233.455 42.8072 234.491C41.9799 234.833 41.1096 235 40.2474 235Z" fill="#316AFE"/>
<path d="M221.126 110.565C219.383 110.565 217.671 109.885 216.389 108.605L191.343 83.5722C183.304 85.6758 175.01 86.7403 166.63 86.7403H149.674C95.9849 86.7403 52.3047 43.0607 52.3047 -10.6295C52.3047 -64.3198 95.9849 -108 149.675 -108H166.63C220.32 -108 264 -64.3198 264 -10.6295C264 4.92336 260.441 19.7883 253.419 33.5525C247.237 45.6714 238.428 56.5194 227.824 65.1071V103.866C227.824 106.575 226.192 109.018 223.689 110.055C222.861 110.399 221.99 110.565 221.126 110.565ZM193.296 69.3538C195.046 69.3538 196.757 70.0405 198.032 71.3147L214.426 87.6996V61.8406C214.426 59.7364 215.415 57.7547 217.094 56.4893C238.389 40.4513 250.602 15.9871 250.602 -10.6295C250.602 -56.9319 212.933 -94.6016 166.63 -94.6016H149.675C103.373 -94.6016 65.7031 -56.9319 65.7031 -10.6295C65.7031 35.6728 103.372 73.3425 149.675 73.3425H166.63C175.045 73.3425 183.355 72.1004 191.329 69.6499C191.976 69.4509 192.639 69.3538 193.296 69.3538Z" fill="#E79A74"/>
<path d="M160.028 17.124C156.329 17.124 153.329 14.1248 153.329 10.4248V-5.67009C153.329 -11.6706 157.436 -16.7807 163.316 -18.0965C170.574 -19.7204 175.469 -26.3137 174.955 -33.7747C174.446 -41.1619 168.491 -47.1168 161.103 -47.626C156.889 -47.9167 152.884 -46.5012 149.82 -43.6413C146.753 -40.7787 145.063 -36.8925 145.063 -32.6994C145.063 -28.9994 142.064 -26.0002 138.364 -26.0002C134.665 -26.0002 131.665 -28.9994 131.665 -32.6994C131.665 -40.5315 134.95 -48.0895 140.677 -53.4362C146.485 -58.8579 154.073 -61.5396 162.023 -60.9936C176.049 -60.0269 187.354 -48.7213 188.321 -34.6965C189.282 -20.748 180.226 -8.396 166.727 -5.13482V10.4248C166.727 14.1248 163.728 17.124 160.028 17.124Z" fill="#E79A74"/>
<path d="M160.028 43.6234C158.266 43.6234 156.538 42.9133 155.292 41.6672C154.046 40.4212 153.329 38.6928 153.329 36.9242C153.329 35.1623 154.046 33.4339 155.292 32.1878C156.538 30.9418 158.266 30.225 160.028 30.225C161.79 30.225 163.518 30.9418 164.764 32.1878C166.01 33.4339 166.727 35.1623 166.727 36.9242C166.727 38.6928 166.011 40.4145 164.764 41.6672C163.518 42.9133 161.79 43.6234 160.028 43.6234Z" fill="#E79A74"/>
<path d="M105.229 113.074H-36.125C-39.8243 113.074 -42.8242 110.075 -42.8242 106.375C-42.8242 102.675 -39.8243 99.6758 -36.125 99.6758H105.229C108.928 99.6758 111.928 102.675 111.928 106.375C111.928 110.075 108.928 113.074 105.229 113.074Z" fill="#316AFE"/>
<path d="M105.229 150.59C103.467 150.59 101.738 149.873 100.492 148.627C99.2461 147.381 98.5293 145.653 98.5293 143.891C98.5293 142.129 99.2454 140.4 100.492 139.154C101.738 137.908 103.467 137.191 105.229 137.191C106.99 137.191 108.719 137.908 109.964 139.154C111.21 140.4 111.928 142.129 111.928 143.891C111.928 145.659 111.211 147.381 109.964 148.627C108.719 149.873 106.99 150.59 105.229 150.59Z" fill="#316AFE"/>
<path d="M78.8785 150.59H-36.125C-39.8243 150.59 -42.8242 147.591 -42.8242 143.891C-42.8242 140.191 -39.8243 137.191 -36.125 137.191H78.8785C82.5778 137.191 85.5777 140.191 85.5777 143.891C85.5777 147.591 82.5785 150.59 78.8785 150.59Z" fill="#316AFE"/>
<path d="M61.6836 75.5586H-36.125C-39.8243 75.5586 -42.8242 72.5594 -42.8242 68.8594C-42.8242 65.1594 -39.8243 62.1602 -36.125 62.1602H61.6836C65.3829 62.1602 68.3828 65.1594 68.3828 68.8594C68.3828 72.5594 65.3836 75.5586 61.6836 75.5586Z" fill="#316AFE"/>
</svg>
