<svg width="29" height="32" viewBox="0 0 29 32" fill="none" xmlns="http://www.w3.org/2000/svg">
<path d="M12.6994 0C15.7831 0.000202646 18.7615 1.13101 21.0789 3.1815C23.3964 5.23198 24.8947 8.06212 25.2943 11.144L28.8661 16.8064C29.101 17.1792 29.0534 17.7344 28.5089 17.9712L25.3991 19.312V24C25.3991 24.8487 25.0646 25.6626 24.4692 26.2627C23.8738 26.8629 23.0662 27.2 22.2242 27.2H19.0508L19.0492 32H4.76208V26.0896C4.76208 24.2016 4.06995 22.4144 2.78728 20.8016C1.2915 18.9192 0.353769 16.6493 0.0821169 14.2532C-0.189535 11.8571 0.215946 9.43244 1.25184 7.2585C2.28774 5.08456 3.91191 3.24981 5.93723 1.96562C7.96255 0.681433 10.3066 5.94548e-05 12.6994 0ZM11.858 9.2208C11.6018 8.95332 11.2953 8.73995 10.9564 8.59313C10.6175 8.44632 10.253 8.369 9.88412 8.3657C9.51525 8.36239 9.14942 8.43316 8.80798 8.57388C8.46654 8.7146 8.15633 8.92244 7.89543 9.18529C7.63454 9.44814 7.4282 9.76072 7.28845 10.1048C7.1487 10.4489 7.07833 10.8176 7.08146 11.1894C7.08459 11.5611 7.16115 11.9286 7.30668 12.2702C7.45221 12.6118 7.66378 12.9209 7.92906 13.1792L12.6994 17.9888L17.4697 13.1792C17.735 12.9209 17.9466 12.6118 18.0921 12.2702C18.2376 11.9286 18.3142 11.5611 18.3173 11.1894C18.3204 10.8176 18.2501 10.4489 18.1103 10.1048C17.9706 9.76072 17.7642 9.44814 17.5033 9.18529C17.2424 8.92244 16.9322 8.7146 16.5908 8.57388C16.2493 8.43316 15.8835 8.36239 15.5147 8.3657C15.1458 8.369 14.7813 8.44632 14.4424 8.59313C14.1035 8.73995 13.797 8.95332 13.5407 9.2208L12.6994 10.0688L11.858 9.2208Z" fill="#26325B"/>
</svg>
