<svg width="306" height="288" viewBox="0 0 306 288" fill="none" xmlns="http://www.w3.org/2000/svg">
<path d="M256 288C114.84 288 0 173.16 0 32C0 -109.16 114.84 -224 256 -224C397.16 -224 512 -109.16 512 32C512 173.16 397.16 288 256 288ZM256 -187.43C135.008 -187.43 36.5703 -88.9922 36.5703 32C36.5703 152.992 135.008 251.43 256 251.43C376.992 251.43 475.43 152.992 475.43 32C475.43 -88.9922 376.992 -187.43 256 -187.43Z" fill="#FF6464"/>
<path d="M347.43 141.715C342.75 141.715 338.07 139.93 334.5 136.355L151.645 -46.5C144.5 -53.6445 144.5 -65.2148 151.645 -72.3555C158.785 -79.4961 170.359 -79.5 177.5 -72.3555L360.355 110.5C367.5 117.645 367.5 129.215 360.355 136.355C356.785 139.93 352.109 141.715 347.43 141.715Z" fill="#FF6464"/>
<path d="M164.57 141.715C159.891 141.715 155.215 139.93 151.645 136.355C144.5 129.215 144.5 117.641 151.645 110.5L334.5 -72.3555C341.645 -79.5 353.215 -79.5 360.355 -72.3555C367.496 -65.2148 367.5 -53.6406 360.355 -46.5L177.5 136.355C173.93 139.93 169.25 141.715 164.57 141.715Z" fill="#FF6464"/>
</svg>
